<svg id="svg" version="1.1" xmlns="http://www.w3.org/2000/svg" xmlns:xlink="http://www.w3.org/1999/xlink" width="400" height="165.33333333333331" viewBox="0, 0, 400,165.33333333333331"><g id="svgg"><path id="path0" d="M140.057 15.525 C 139.721 15.948,139.655 20.414,139.664 42.182 L 139.672 63.972 139.254 64.301 L 138.836 64.629 138.821 80.440 C 138.807 95.102,138.843 96.768,139.181 97.001 C 139.249 97.047,139.344 98.172,139.394 99.501 C 139.487 101.993,139.597 102.729,139.852 102.572 C 140.000 102.480,140.095 103.529,140.046 104.712 C 140.031 105.058,140.084 105.301,140.162 105.253 C 140.240 105.205,140.284 105.297,140.259 105.458 C 140.234 105.618,140.283 105.795,140.367 105.850 C 140.552 105.969,140.737 106.877,140.730 107.625 C 140.727 107.923,140.791 108.167,140.872 108.167 C 140.953 108.167,140.970 108.246,140.910 108.344 C 140.850 108.441,140.924 108.658,141.076 108.825 C 141.243 109.010,141.373 109.497,141.407 110.074 C 141.444 110.703,141.554 111.086,141.734 111.218 C 141.906 111.345,142.026 111.734,142.065 112.298 C 142.102 112.824,142.242 113.307,142.413 113.496 C 142.571 113.671,142.716 114.115,142.735 114.483 C 142.753 114.851,142.901 115.299,143.064 115.478 C 143.226 115.658,143.380 116.076,143.407 116.409 C 143.433 116.741,143.569 117.104,143.708 117.215 C 143.847 117.326,144.001 117.743,144.050 118.142 C 144.104 118.577,144.281 118.998,144.493 119.196 C 144.703 119.392,144.810 119.643,144.756 119.814 C 144.704 119.977,144.810 120.257,144.999 120.461 C 145.183 120.658,145.333 120.967,145.333 121.148 C 145.333 121.328,145.453 121.596,145.599 121.741 C 145.744 121.887,145.880 122.099,145.900 122.212 C 145.995 122.744,146.201 123.144,146.423 123.229 C 146.557 123.281,146.667 123.513,146.667 123.746 C 146.667 123.979,146.817 124.298,147.000 124.455 C 147.183 124.612,147.333 124.912,147.333 125.122 C 147.333 125.332,147.483 125.632,147.667 125.789 C 147.850 125.946,148.000 126.197,148.000 126.348 C 148.000 126.498,148.139 126.801,148.308 127.019 C 148.477 127.238,148.666 127.623,148.728 127.875 C 148.789 128.127,148.912 128.333,149.001 128.333 C 149.090 128.333,149.274 128.577,149.411 128.875 C 149.710 129.525,149.958 129.923,150.458 130.553 C 150.665 130.813,150.833 131.153,150.833 131.309 C 150.833 131.465,150.965 131.711,151.125 131.856 C 151.574 132.261,152.000 132.819,152.000 133.002 C 152.000 133.093,152.075 133.167,152.167 133.167 C 152.258 133.167,152.333 133.321,152.333 133.510 C 152.333 133.699,152.409 133.806,152.501 133.749 C 152.593 133.692,152.719 133.776,152.780 133.935 C 152.881 134.198,153.005 134.356,153.744 135.168 C 153.870 135.306,154.027 135.635,154.094 135.898 C 154.160 136.161,154.353 136.413,154.524 136.458 C 154.694 136.502,154.833 136.602,154.833 136.679 C 154.833 136.756,155.128 137.138,155.488 137.528 C 155.848 137.918,156.110 138.291,156.069 138.357 C 156.028 138.422,156.127 138.520,156.289 138.575 C 156.451 138.629,156.771 138.981,157.000 139.357 C 157.454 140.103,158.444 141.167,158.683 141.167 C 158.766 141.167,158.833 141.242,158.833 141.333 C 158.833 141.672,162.886 145.706,164.284 146.758 C 164.632 147.021,165.015 147.370,165.134 147.534 C 165.254 147.699,165.498 147.833,165.676 147.833 C 165.970 147.833,166.081 148.014,166.016 148.387 C 166.002 148.463,166.060 148.482,166.144 148.431 C 166.227 148.379,166.603 148.626,166.979 148.980 C 167.895 149.843,168.769 150.500,169.000 150.500 C 169.104 150.500,169.453 150.779,169.775 151.121 C 170.097 151.462,170.598 151.822,170.888 151.921 C 171.179 152.019,171.396 152.195,171.371 152.312 C 171.346 152.429,171.391 152.484,171.471 152.435 C 171.551 152.385,171.794 152.511,172.011 152.714 C 172.227 152.917,172.633 153.162,172.911 153.258 C 173.189 153.354,173.398 153.523,173.375 153.633 C 173.352 153.743,173.390 153.825,173.458 153.815 C 173.768 153.771,174.333 154.060,174.333 154.264 C 174.333 154.396,174.437 154.450,174.583 154.394 C 174.721 154.341,174.833 154.381,174.833 154.482 C 174.833 154.584,174.949 154.667,175.090 154.667 C 175.232 154.667,175.508 154.817,175.705 155.000 C 175.902 155.183,176.201 155.333,176.370 155.333 C 176.539 155.333,176.719 155.443,176.771 155.577 C 176.822 155.711,177.026 155.871,177.224 155.933 C 177.422 155.995,177.762 156.186,177.981 156.356 C 178.199 156.527,178.518 156.667,178.689 156.667 C 178.860 156.667,179.000 156.777,179.000 156.911 C 179.000 157.061,179.098 157.119,179.250 157.060 C 179.387 157.008,179.500 157.047,179.500 157.149 C 179.500 157.250,179.688 157.333,179.917 157.333 C 180.172 157.333,180.333 157.428,180.333 157.578 C 180.333 157.727,180.431 157.785,180.583 157.727 C 180.721 157.674,180.833 157.714,180.833 157.816 C 180.833 157.917,181.021 158.000,181.250 158.000 C 181.505 158.000,181.667 158.095,181.667 158.245 C 181.667 158.394,181.764 158.452,181.917 158.394 C 182.054 158.341,182.167 158.376,182.167 158.471 C 182.167 158.566,182.383 158.638,182.647 158.631 C 182.923 158.623,183.291 158.769,183.512 158.975 C 183.723 159.172,184.058 159.333,184.256 159.333 C 184.454 159.333,184.789 159.483,185.000 159.667 C 185.211 159.850,185.567 160.000,185.791 160.000 C 186.014 160.000,186.388 160.150,186.621 160.333 C 186.854 160.517,187.263 160.667,187.529 160.667 C 187.796 160.667,188.179 160.821,188.381 161.009 C 188.589 161.203,188.883 161.316,189.059 161.270 C 189.413 161.177,190.189 161.434,190.352 161.697 C 190.412 161.794,190.814 161.897,191.246 161.926 C 191.726 161.958,192.107 162.083,192.227 162.247 C 192.364 162.434,192.772 162.539,193.559 162.590 C 194.767 162.669,195.064 162.762,194.910 163.012 C 194.857 163.097,194.949 163.174,195.115 163.182 C 195.281 163.190,195.604 163.213,195.833 163.233 C 196.063 163.252,196.536 163.283,196.885 163.301 C 197.259 163.320,197.477 163.402,197.417 163.500 C 197.329 163.642,197.795 163.752,198.208 163.686 C 198.277 163.676,198.333 163.734,198.333 163.816 C 198.333 163.899,198.540 163.959,198.792 163.950 C 200.230 163.899,201.000 164.007,201.000 164.260 C 201.000 164.403,201.075 164.473,201.167 164.417 C 201.258 164.360,201.424 164.370,201.534 164.438 C 201.645 164.506,202.600 164.590,203.657 164.624 C 204.922 164.665,205.665 164.761,205.831 164.905 C 205.970 165.025,206.284 165.112,206.529 165.098 C 206.774 165.085,206.947 165.117,206.914 165.170 C 206.881 165.224,210.070 165.267,214.000 165.267 C 217.930 165.267,221.116 165.220,221.081 165.162 C 221.045 165.104,221.180 165.069,221.381 165.084 C 221.582 165.099,221.834 165.023,221.942 164.915 C 222.135 164.722,223.604 164.584,225.284 164.601 C 225.761 164.606,226.117 164.554,226.075 164.486 C 226.033 164.418,226.130 164.384,226.291 164.411 C 226.452 164.437,226.699 164.358,226.841 164.234 C 226.991 164.104,227.626 163.984,228.357 163.947 C 229.049 163.913,229.702 163.831,229.807 163.766 C 229.913 163.701,230.075 163.693,230.167 163.750 C 230.258 163.807,230.333 163.736,230.333 163.593 C 230.333 163.417,230.508 163.324,230.875 163.304 C 231.173 163.288,231.749 163.258,232.156 163.238 C 232.619 163.215,232.971 163.098,233.098 162.925 C 233.234 162.739,233.607 162.631,234.241 162.593 C 234.828 162.558,235.301 162.430,235.496 162.253 C 235.669 162.097,236.134 161.946,236.530 161.917 C 236.926 161.888,237.287 161.849,237.333 161.829 C 237.379 161.810,237.478 161.805,237.554 161.818 C 237.630 161.831,237.647 161.770,237.593 161.682 C 237.452 161.455,237.715 161.334,238.495 161.268 C 238.869 161.236,239.320 161.079,239.497 160.919 C 239.674 160.759,240.046 160.617,240.324 160.603 C 240.602 160.589,240.989 160.441,241.185 160.273 C 241.380 160.106,241.775 159.947,242.062 159.920 C 242.708 159.860,243.167 159.678,243.167 159.482 C 243.167 159.400,243.343 159.333,243.558 159.333 C 243.773 159.333,244.122 159.183,244.333 159.000 C 244.706 158.677,244.892 158.606,245.260 158.647 C 245.357 158.658,245.598 158.517,245.795 158.333 C 245.992 158.150,246.327 158.000,246.540 158.000 C 246.752 158.000,247.035 157.850,247.167 157.667 C 247.299 157.483,247.579 157.333,247.788 157.333 C 247.998 157.333,248.298 157.183,248.455 157.000 C 248.612 156.817,248.907 156.667,249.111 156.667 C 249.314 156.667,249.527 156.590,249.585 156.497 C 249.643 156.404,249.761 156.372,249.849 156.426 C 249.937 156.480,249.988 156.432,249.962 156.319 C 249.937 156.206,250.084 156.069,250.288 156.015 C 250.492 155.961,250.812 155.785,250.998 155.625 C 251.185 155.465,251.444 155.333,251.575 155.333 C 251.706 155.333,251.861 155.257,251.918 155.164 C 251.976 155.071,252.095 155.039,252.182 155.093 C 252.270 155.147,252.321 155.094,252.296 154.975 C 252.271 154.855,252.413 154.733,252.612 154.702 C 252.812 154.672,253.093 154.466,253.238 154.245 C 253.382 154.025,253.597 153.881,253.715 153.926 C 253.832 153.971,254.091 153.856,254.291 153.671 C 254.490 153.485,254.716 153.333,254.794 153.333 C 254.917 153.333,256.280 152.406,256.500 152.172 C 256.546 152.123,256.733 151.997,256.917 151.891 C 257.100 151.784,257.231 151.616,257.208 151.516 C 257.169 151.344,257.365 151.271,257.751 151.312 C 257.843 151.321,258.176 151.110,258.491 150.841 C 258.806 150.572,259.126 150.391,259.202 150.439 C 259.279 150.486,259.331 150.463,259.318 150.387 C 259.256 150.033,259.356 149.833,259.594 149.833 C 259.892 149.833,260.688 149.255,261.688 148.314 C 262.063 147.960,262.449 147.718,262.544 147.777 C 262.640 147.837,262.670 147.807,262.611 147.711 C 262.505 147.539,262.960 147.045,263.151 147.125 C 263.205 147.148,263.250 147.075,263.250 146.963 C 263.250 146.851,263.419 146.675,263.627 146.572 C 263.834 146.469,265.207 145.173,266.677 143.692 C 269.381 140.969,269.687 140.749,269.989 141.312 C 270.324 141.939,274.383 145.833,274.701 145.833 C 274.774 145.833,274.833 145.905,274.833 145.992 C 274.833 146.291,275.739 147.075,276.983 147.855 C 277.222 148.004,277.396 148.216,277.371 148.326 C 277.346 148.435,277.391 148.484,277.472 148.434 C 277.554 148.384,277.813 148.547,278.049 148.796 C 278.286 149.046,278.578 149.327,278.698 149.421 C 279.187 149.804,280.097 150.428,280.413 150.597 C 280.598 150.696,280.729 150.870,280.704 150.984 C 280.679 151.098,280.721 151.153,280.798 151.105 C 280.874 151.058,281.195 151.240,281.510 151.510 C 281.825 151.780,282.177 151.966,282.291 151.923 C 282.406 151.879,282.621 152.029,282.769 152.255 C 282.917 152.482,283.108 152.667,283.193 152.667 C 283.278 152.667,283.508 152.817,283.705 153.000 C 283.902 153.183,284.143 153.325,284.240 153.314 C 284.656 153.267,284.833 153.349,284.833 153.589 C 284.833 153.729,284.965 153.893,285.125 153.953 C 285.285 154.013,285.492 154.161,285.583 154.281 C 285.675 154.401,285.950 154.515,286.195 154.535 C 286.440 154.554,286.769 154.742,286.927 154.952 C 287.084 155.162,287.388 155.333,287.601 155.333 C 287.818 155.333,288.067 155.480,288.167 155.667 C 288.265 155.850,288.492 156.000,288.673 156.000 C 288.853 156.000,289.000 156.110,289.000 156.245 C 289.000 156.386,289.099 156.452,289.233 156.400 C 289.361 156.351,289.516 156.391,289.576 156.489 C 289.637 156.587,289.832 156.667,290.010 156.667 C 290.188 156.667,290.333 156.777,290.333 156.911 C 290.333 157.061,290.431 157.119,290.583 157.060 C 290.721 157.008,290.833 157.047,290.833 157.149 C 290.833 157.250,291.021 157.333,291.250 157.333 C 291.505 157.333,291.667 157.428,291.667 157.578 C 291.667 157.719,291.765 157.785,291.900 157.733 C 292.028 157.684,292.182 157.724,292.243 157.822 C 292.303 157.920,292.499 158.000,292.677 158.000 C 292.854 158.000,293.000 158.110,293.000 158.245 C 293.000 158.394,293.098 158.452,293.250 158.394 C 293.387 158.341,293.500 158.381,293.500 158.482 C 293.500 158.584,293.760 158.667,294.077 158.667 C 294.478 158.667,294.708 158.766,294.828 158.989 C 294.932 159.184,295.215 159.333,295.542 159.364 C 295.840 159.393,296.069 159.498,296.051 159.597 C 296.033 159.697,296.108 159.790,296.218 159.806 C 297.343 159.964,297.667 160.066,297.667 160.263 C 297.667 160.396,297.770 160.450,297.917 160.394 C 298.054 160.341,298.167 160.366,298.167 160.449 C 298.167 160.532,298.422 160.608,298.733 160.617 C 299.074 160.626,299.442 160.776,299.658 160.992 C 299.879 161.213,300.133 161.313,300.320 161.254 C 300.658 161.147,301.518 161.426,301.685 161.697 C 301.745 161.794,302.148 161.897,302.579 161.926 C 303.062 161.958,303.440 162.082,303.562 162.249 C 303.699 162.437,304.113 162.545,304.910 162.602 C 306.144 162.690,306.394 162.767,306.243 163.012 C 306.190 163.097,306.283 163.174,306.448 163.182 C 306.614 163.190,306.938 163.213,307.167 163.233 C 307.396 163.252,307.869 163.283,308.218 163.301 C 308.592 163.320,308.811 163.402,308.750 163.500 C 308.693 163.592,308.789 163.667,308.962 163.667 C 309.136 163.667,309.326 163.715,309.386 163.774 C 309.445 163.834,310.073 163.911,310.782 163.946 C 311.490 163.981,312.110 164.073,312.160 164.149 C 312.301 164.368,313.021 164.562,313.750 164.579 C 316.737 164.648,317.000 164.673,317.000 164.890 C 317.000 165.033,317.178 165.103,317.493 165.084 C 317.764 165.068,317.956 165.103,317.919 165.163 C 317.882 165.222,321.143 165.270,325.165 165.269 C 329.188 165.268,332.449 165.220,332.414 165.162 C 332.378 165.104,332.513 165.069,332.714 165.084 C 332.915 165.099,333.168 165.023,333.275 164.915 C 333.468 164.722,334.937 164.584,336.617 164.601 C 337.094 164.606,337.450 164.554,337.408 164.486 C 337.366 164.418,337.463 164.384,337.624 164.411 C 337.785 164.437,338.033 164.357,338.175 164.233 C 338.327 164.101,338.926 163.990,339.632 163.963 C 340.291 163.937,340.831 163.856,340.832 163.782 C 340.833 163.708,340.913 163.696,341.011 163.756 C 341.108 163.817,341.322 163.745,341.486 163.596 C 341.679 163.421,342.143 163.313,342.808 163.288 C 343.372 163.267,343.833 163.186,343.833 163.107 C 343.833 163.029,343.946 163.008,344.083 163.060 C 344.236 163.119,344.333 163.061,344.333 162.911 C 344.333 162.681,344.496 162.645,345.761 162.596 C 345.951 162.589,346.237 162.452,346.398 162.292 C 346.559 162.131,346.929 161.989,347.220 161.975 C 347.512 161.962,347.869 161.943,348.015 161.934 C 348.160 161.924,348.404 161.814,348.556 161.688 C 348.709 161.562,348.834 161.525,348.836 161.605 C 348.837 161.685,348.900 161.653,348.976 161.534 C 349.051 161.415,349.378 161.301,349.702 161.280 C 350.026 161.259,350.413 161.141,350.562 161.017 C 350.711 160.894,350.833 160.845,350.833 160.908 C 350.833 160.972,350.957 160.900,351.108 160.749 C 351.259 160.598,351.523 160.511,351.694 160.556 C 351.866 160.600,352.111 160.531,352.240 160.402 C 352.572 160.071,353.285 159.825,353.582 159.939 C 353.721 159.993,353.833 159.945,353.833 159.833 C 353.833 159.722,353.946 159.674,354.083 159.727 C 354.236 159.785,354.333 159.727,354.333 159.578 C 354.333 159.420,354.502 159.333,354.808 159.333 C 355.069 159.333,355.455 159.183,355.667 159.000 C 355.878 158.817,356.223 158.667,356.432 158.667 C 356.642 158.667,356.861 158.590,356.918 158.497 C 356.976 158.404,357.095 158.372,357.182 158.426 C 357.270 158.480,357.321 158.430,357.296 158.314 C 357.271 158.198,357.400 158.076,357.583 158.042 C 357.767 158.008,358.029 157.935,358.167 157.880 C 358.304 157.825,358.473 157.792,358.542 157.807 C 358.610 157.821,358.648 157.744,358.625 157.635 C 358.602 157.526,358.733 157.409,358.917 157.375 C 359.100 157.341,359.363 157.269,359.500 157.214 C 359.637 157.159,359.806 157.126,359.875 157.140 C 359.944 157.155,359.981 157.077,359.958 156.968 C 359.935 156.859,360.067 156.742,360.250 156.708 C 360.433 156.675,360.696 156.602,360.833 156.547 C 360.971 156.492,361.140 156.459,361.208 156.474 C 361.277 156.488,361.315 156.413,361.292 156.306 C 361.269 156.200,361.417 156.069,361.621 156.015 C 361.825 155.961,362.145 155.785,362.332 155.625 C 362.518 155.465,362.778 155.333,362.909 155.333 C 363.040 155.333,363.194 155.257,363.252 155.164 C 363.309 155.071,363.438 155.045,363.537 155.106 C 363.645 155.173,363.670 155.141,363.599 155.025 C 363.488 154.846,364.236 154.407,364.542 154.473 C 364.610 154.488,364.648 154.413,364.625 154.306 C 364.602 154.200,364.750 154.069,364.955 154.015 C 365.159 153.961,365.478 153.785,365.665 153.625 C 365.851 153.465,366.060 153.333,366.129 153.333 C 366.198 153.333,366.397 153.143,366.572 152.910 C 366.747 152.677,366.979 152.520,367.086 152.561 C 367.194 152.603,367.533 152.423,367.840 152.161 C 368.146 151.900,368.469 151.731,368.557 151.785 C 368.647 151.841,368.664 151.798,368.597 151.689 C 368.520 151.564,368.696 151.401,369.085 151.239 C 369.419 151.099,369.898 150.782,370.150 150.534 C 370.401 150.286,370.751 149.997,370.928 149.891 C 371.105 149.784,371.231 149.616,371.208 149.516 C 371.185 149.415,371.312 149.333,371.490 149.333 C 371.668 149.333,371.861 149.257,371.918 149.164 C 371.976 149.071,372.093 149.038,372.178 149.090 C 372.264 149.143,372.333 149.069,372.333 148.927 C 372.333 148.784,372.390 148.667,372.458 148.666 C 372.606 148.666,373.410 148.017,374.008 147.415 C 374.241 147.180,374.497 147.047,374.576 147.119 C 374.655 147.191,374.671 147.165,374.612 147.061 C 374.509 146.881,374.938 146.388,375.151 146.442 C 375.205 146.455,375.233 146.403,375.211 146.326 C 375.159 146.135,376.093 145.482,376.227 145.616 C 376.286 145.674,376.333 145.643,376.333 145.545 C 376.333 145.307,377.348 144.239,377.525 144.292 C 377.603 144.315,377.651 144.277,377.632 144.208 C 377.584 144.032,378.687 142.908,378.859 142.958 C 378.936 142.981,378.984 142.944,378.965 142.875 C 378.915 142.691,380.025 141.575,380.205 141.629 C 380.289 141.654,380.310 141.598,380.252 141.503 C 380.193 141.408,380.262 141.286,380.405 141.231 C 380.548 141.177,380.629 141.073,380.584 141.001 C 380.507 140.876,380.992 140.374,381.109 140.458 C 381.141 140.481,381.148 140.474,381.125 140.442 C 381.023 140.301,381.556 139.848,381.711 139.944 C 381.807 140.003,381.838 139.975,381.780 139.883 C 381.723 139.790,381.880 139.515,382.130 139.273 C 382.839 138.583,383.167 138.181,383.167 138.000 C 383.167 137.908,383.266 137.833,383.387 137.833 C 383.599 137.833,384.500 136.617,384.500 136.332 C 384.500 136.255,384.782 135.906,385.127 135.555 C 385.754 134.916,386.975 133.193,387.207 132.618 C 387.275 132.450,387.406 132.359,387.499 132.416 C 387.591 132.473,387.667 132.391,387.667 132.234 C 387.667 132.077,387.873 131.680,388.125 131.352 C 388.669 130.644,388.905 130.264,389.241 129.557 C 389.379 129.267,389.569 129.005,389.664 128.973 C 389.759 128.941,389.871 128.735,389.914 128.515 C 389.956 128.295,390.143 127.953,390.329 127.755 C 390.515 127.557,390.667 127.266,390.667 127.107 C 390.667 126.949,390.817 126.658,391.000 126.462 C 391.183 126.265,391.333 126.001,391.333 125.875 C 391.333 125.750,391.408 125.693,391.500 125.750 C 391.595 125.809,391.667 125.665,391.667 125.417 C 391.667 125.168,391.738 125.025,391.833 125.083 C 391.927 125.141,392.000 125.010,392.000 124.786 C 392.000 124.565,392.150 124.249,392.333 124.083 C 392.517 123.917,392.667 123.601,392.667 123.381 C 392.667 123.156,392.740 123.026,392.833 123.083 C 392.928 123.142,393.000 122.998,393.000 122.750 C 393.000 122.502,393.072 122.358,393.167 122.417 C 393.265 122.478,393.333 122.288,393.333 121.952 C 393.333 121.597,393.458 121.272,393.667 121.083 C 393.850 120.917,394.000 120.609,394.000 120.397 C 394.000 120.186,394.152 119.871,394.338 119.698 C 394.534 119.515,394.633 119.274,394.575 119.121 C 394.517 118.969,394.621 118.712,394.824 118.509 C 395.032 118.301,395.201 117.877,395.241 117.462 C 395.280 117.060,395.429 116.676,395.593 116.556 C 395.771 116.425,395.901 116.051,395.941 115.549 C 395.981 115.063,396.113 114.670,396.280 114.546 C 396.430 114.433,396.572 114.133,396.596 113.879 C 396.669 113.089,396.817 112.613,397.032 112.480 C 397.146 112.410,397.248 112.142,397.260 111.885 C 397.317 110.634,397.344 110.487,397.500 110.583 C 397.592 110.640,397.667 110.544,397.667 110.371 C 397.667 110.197,397.723 109.999,397.792 109.930 C 397.860 109.861,397.921 109.605,397.927 109.361 C 397.955 108.162,398.012 107.821,398.167 107.917 C 398.258 107.973,398.333 107.878,398.333 107.704 C 398.333 107.531,398.388 107.335,398.454 107.268 C 398.520 107.202,398.591 106.758,398.612 106.282 C 398.655 105.265,398.775 104.645,398.954 104.512 C 399.151 104.366,399.201 104.044,399.275 102.420 C 399.312 101.597,399.410 100.856,399.492 100.775 C 399.574 100.693,399.601 100.523,399.552 100.396 C 399.504 100.270,399.555 100.167,399.667 100.167 C 399.778 100.167,399.826 100.054,399.773 99.917 C 399.720 99.779,399.747 99.667,399.832 99.667 C 400.153 99.667,400.048 15.905,399.727 15.584 C 399.413 15.270,393.299 15.245,392.875 15.555 C 392.760 15.639,392.666 15.642,392.664 15.562 C 392.663 15.482,392.601 15.512,392.526 15.630 C 392.376 15.867,390.411 16.235,390.151 16.074 C 390.060 16.017,389.876 16.062,389.743 16.173 C 389.609 16.284,389.500 16.316,389.500 16.245 C 389.500 16.173,389.359 16.243,389.186 16.399 C 389.001 16.567,388.506 16.711,387.982 16.750 C 387.433 16.790,387.019 16.915,386.902 17.075 C 386.798 17.217,386.488 17.333,386.212 17.333 C 385.937 17.333,385.521 17.483,385.288 17.667 C 385.055 17.850,384.684 18.000,384.463 18.000 C 384.243 18.000,383.902 18.150,383.705 18.333 C 383.508 18.517,383.208 18.667,383.038 18.667 C 382.869 18.667,382.569 18.817,382.372 19.000 C 382.175 19.183,381.875 19.333,381.705 19.333 C 381.535 19.333,381.235 19.483,381.038 19.667 C 380.842 19.850,380.565 20.000,380.424 20.000 C 380.282 20.000,380.167 20.083,380.167 20.184 C 380.167 20.286,380.054 20.326,379.917 20.273 C 379.770 20.217,379.667 20.271,379.667 20.402 C 379.667 20.606,379.102 20.896,378.792 20.851 C 378.723 20.841,378.667 20.944,378.667 21.080 C 378.667 21.216,378.460 21.377,378.208 21.439 C 377.956 21.500,377.572 21.725,377.355 21.939 C 377.138 22.153,376.894 22.287,376.813 22.238 C 376.733 22.188,376.667 22.266,376.667 22.411 C 376.667 22.556,376.485 22.744,376.263 22.828 C 376.042 22.913,375.791 23.105,375.707 23.256 C 375.622 23.406,375.504 23.504,375.445 23.473 C 375.301 23.398,374.191 24.396,372.278 26.317 C 370.350 28.254,370.167 28.458,370.167 28.667 C 370.167 28.758,370.067 28.833,369.946 28.833 C 369.715 28.833,368.934 29.919,368.751 30.496 C 368.692 30.681,368.537 30.833,368.405 30.833 C 368.274 30.833,368.157 30.908,368.146 31.000 C 368.134 31.092,368.112 31.260,368.097 31.375 C 368.081 31.490,367.978 31.565,367.867 31.542 C 367.757 31.519,367.667 31.650,367.667 31.833 C 367.667 32.017,367.592 32.167,367.500 32.167 C 367.408 32.167,367.333 32.268,367.333 32.391 C 367.333 32.514,367.183 32.751,367.000 32.917 C 366.817 33.083,366.667 33.378,366.667 33.572 C 366.667 33.767,366.517 34.054,366.333 34.211 C 366.150 34.368,366.000 34.614,366.000 34.758 C 366.000 34.902,365.925 34.973,365.833 34.917 C 365.742 34.860,365.667 34.964,365.667 35.147 C 365.667 35.330,365.592 35.527,365.500 35.583 C 365.408 35.640,365.333 35.836,365.333 36.020 C 365.333 36.203,365.258 36.307,365.167 36.250 C 365.072 36.192,365.000 36.332,365.000 36.573 C 365.000 36.808,364.925 37.000,364.833 37.000 C 364.742 37.000,364.667 37.116,364.667 37.257 C 364.667 37.398,364.519 37.717,364.338 37.965 C 364.157 38.213,363.992 38.698,363.971 39.042 C 363.947 39.422,363.847 39.667,363.716 39.667 C 363.503 39.667,363.431 39.870,363.491 40.305 C 363.507 40.427,363.402 40.708,363.257 40.930 C 363.072 41.212,363.053 41.333,363.195 41.333 C 363.308 41.333,363.270 41.426,363.109 41.544 C 362.919 41.683,362.795 42.061,362.745 42.654 C 362.703 43.149,362.562 43.673,362.430 43.819 C 362.298 43.964,362.185 44.140,362.179 44.208 C 362.172 44.277,362.162 44.352,362.155 44.375 C 362.149 44.398,362.110 45.003,362.068 45.720 C 362.022 46.514,361.889 47.181,361.728 47.427 C 361.582 47.649,361.508 47.948,361.563 48.091 C 361.618 48.234,361.607 48.316,361.539 48.274 C 361.221 48.078,361.408 57.217,361.750 58.583 C 362.073 59.874,362.083 60.472,362.083 77.083 L 362.083 94.250 361.698 96.167 C 361.486 97.221,361.236 98.383,361.144 98.750 C 360.588 100.955,360.326 101.850,359.999 102.667 C 359.797 103.171,359.527 103.866,359.399 104.211 C 358.874 105.629,356.984 109.150,355.846 110.833 C 351.372 117.446,343.923 123.149,337.000 125.260 C 336.587 125.385,335.912 125.597,335.500 125.730 C 321.238 130.335,303.837 124.259,294.979 111.583 C 294.138 110.380,292.000 106.805,292.000 106.602 C 292.000 106.557,291.700 105.882,291.333 105.103 C 290.967 104.324,290.667 103.604,290.667 103.502 C 290.667 103.400,290.548 103.087,290.402 102.805 C 290.103 102.226,289.782 101.168,289.343 99.310 C 289.178 98.610,288.997 97.963,288.942 97.874 C 288.242 96.741,287.714 61.705,288.336 57.667 C 288.566 56.174,288.666 55.777,288.783 55.894 C 288.839 55.950,288.982 55.865,289.103 55.706 C 289.370 55.355,289.425 51.743,289.167 51.583 C 289.075 51.527,289.000 51.330,289.000 51.147 C 289.000 50.964,288.925 50.860,288.833 50.917 C 288.731 50.980,288.654 50.647,288.634 50.052 C 288.573 48.222,288.473 47.718,288.127 47.484 C 288.046 47.429,287.957 47.046,287.929 46.632 C 287.896 46.128,287.758 45.758,287.514 45.514 C 287.275 45.275,287.185 45.038,287.253 44.824 C 287.320 44.613,287.266 44.464,287.101 44.400 C 286.864 44.309,286.661 43.912,286.562 43.346 C 286.540 43.215,286.404 43.043,286.260 42.963 C 286.117 42.882,286.000 42.731,286.000 42.626 C 286.000 42.035,281.519 37.199,281.171 37.414 C 281.096 37.460,280.992 37.385,280.939 37.248 C 280.886 37.110,280.634 36.904,280.380 36.790 C 280.125 36.676,279.783 36.471,279.620 36.333 C 279.456 36.196,279.269 36.095,279.203 36.109 C 278.988 36.154,278.489 35.820,278.571 35.686 C 278.616 35.614,278.562 35.544,278.451 35.531 C 277.771 35.446,277.167 35.278,277.167 35.175 C 277.167 35.007,276.338 34.644,276.179 34.743 C 276.107 34.787,275.907 34.715,275.733 34.583 C 275.365 34.305,275.101 34.259,275.250 34.500 C 275.407 34.754,275.208 34.699,274.844 34.387 C 274.613 34.189,274.117 34.088,273.153 34.043 C 272.380 34.007,271.700 33.891,271.584 33.775 C 271.329 33.520,267.939 33.538,267.627 33.796 C 267.512 33.892,266.713 34.005,265.852 34.046 C 264.632 34.105,264.255 34.182,264.136 34.394 C 264.031 34.582,263.756 34.667,263.254 34.667 C 262.808 34.667,262.420 34.770,262.259 34.932 C 262.113 35.078,261.901 35.214,261.788 35.234 C 261.256 35.329,260.856 35.535,260.771 35.756 C 260.719 35.890,260.493 36.000,260.267 36.000 C 260.042 36.000,259.738 36.119,259.592 36.265 C 259.446 36.411,259.225 36.545,259.101 36.564 C 258.976 36.582,258.594 36.819,258.250 37.090 C 257.907 37.361,257.560 37.565,257.480 37.542 C 257.399 37.519,257.333 37.585,257.333 37.689 C 257.333 37.893,256.563 38.667,256.360 38.667 C 256.186 38.667,254.676 40.221,254.687 40.389 C 254.693 40.465,254.446 40.807,254.140 41.150 C 253.452 41.919,252.667 43.046,252.667 43.264 C 252.667 43.353,252.517 43.554,252.333 43.711 C 252.150 43.868,252.000 44.181,252.000 44.407 C 252.000 44.632,251.878 44.885,251.730 44.968 C 251.563 45.061,251.436 45.400,251.398 45.851 C 251.362 46.276,251.223 46.667,251.065 46.783 C 250.885 46.915,250.771 47.308,250.727 47.940 C 250.690 48.467,250.554 49.014,250.425 49.157 C 250.296 49.300,250.185 49.473,250.179 49.542 C 250.172 49.610,250.162 49.685,250.155 49.708 C 250.038 50.140,250.010 57.564,250.125 57.713 C 250.711 58.467,250.750 59.741,250.739 77.583 L 250.727 95.083 250.213 97.333 C 247.140 110.782,239.266 119.967,226.500 124.994 C 219.765 127.647,210.754 127.893,203.250 125.629 C 195.046 123.154,186.231 116.446,182.607 109.917 C 182.454 109.642,182.255 109.304,182.165 109.167 C 179.977 105.834,177.917 99.957,177.209 95.024 C 176.804 92.204,176.693 62.831,177.086 62.438 C 177.237 62.287,177.429 62.206,177.513 62.258 C 177.598 62.310,177.667 62.236,177.667 62.093 C 177.667 61.950,177.742 61.833,177.833 61.833 C 177.941 61.833,178.000 59.774,178.000 55.990 C 178.000 52.776,177.938 50.185,177.862 50.232 C 177.786 50.279,177.736 50.153,177.751 49.951 C 177.767 49.749,177.683 49.508,177.566 49.417 C 177.425 49.306,177.332 48.648,177.290 47.460 C 177.255 46.476,177.175 45.620,177.113 45.557 C 177.051 45.495,177.000 45.303,177.000 45.129 C 177.000 44.956,176.925 44.860,176.833 44.917 C 176.672 45.016,176.652 44.880,176.583 43.184 C 176.563 42.709,176.451 42.376,176.265 42.241 C 176.080 42.105,175.959 41.748,175.925 41.236 C 175.890 40.707,175.771 40.367,175.571 40.220 C 175.370 40.074,175.345 40.000,175.494 40.000 C 175.671 40.000,175.664 39.938,175.464 39.708 C 175.325 39.548,175.242 39.330,175.281 39.224 C 175.319 39.117,175.272 38.982,175.175 38.922 C 175.079 38.862,175.000 38.664,175.000 38.480 C 175.000 38.297,174.925 38.193,174.833 38.250 C 174.736 38.310,174.667 38.140,174.667 37.842 C 174.667 37.536,174.532 37.215,174.333 37.045 C 174.150 36.888,174.000 36.591,174.000 36.386 C 174.000 36.181,173.859 35.879,173.686 35.715 C 173.513 35.551,173.319 35.168,173.254 34.864 C 173.189 34.560,173.030 34.270,172.901 34.221 C 172.772 34.171,172.667 34.049,172.667 33.949 C 172.667 33.717,171.817 32.459,171.542 32.283 C 171.427 32.210,171.333 32.064,171.333 31.959 C 171.333 31.679,170.510 30.515,169.792 29.780 C 169.448 29.428,169.167 29.061,169.167 28.964 C 169.167 28.657,166.094 25.333,165.810 25.333 C 165.731 25.333,165.667 25.223,165.667 25.089 C 165.667 24.945,165.568 24.882,165.429 24.935 C 165.293 24.987,165.112 24.876,165.003 24.672 C 164.898 24.477,164.630 24.248,164.407 24.163 C 164.183 24.078,164.000 23.899,164.000 23.765 C 164.000 23.632,163.850 23.475,163.667 23.417 C 163.483 23.358,163.333 23.203,163.333 23.072 C 163.333 22.941,163.267 22.852,163.187 22.875 C 163.106 22.898,162.760 22.695,162.416 22.423 C 162.073 22.152,161.676 21.913,161.533 21.892 C 161.391 21.871,161.209 21.737,161.129 21.594 C 161.049 21.451,160.913 21.333,160.827 21.333 C 160.741 21.333,160.517 21.202,160.330 21.042 C 160.142 20.881,159.917 20.741,159.828 20.729 C 159.739 20.718,159.592 20.699,159.500 20.688 C 159.408 20.676,159.333 20.554,159.333 20.417 C 159.333 20.279,159.277 20.179,159.208 20.193 C 159.014 20.234,158.457 19.974,158.019 19.638 C 157.801 19.471,157.482 19.333,157.311 19.333 C 157.140 19.333,157.000 19.223,157.000 19.089 C 157.000 18.947,156.901 18.882,156.767 18.933 C 156.639 18.982,156.484 18.943,156.424 18.845 C 156.363 18.747,156.193 18.667,156.045 18.667 C 155.897 18.667,155.639 18.542,155.471 18.390 C 155.303 18.238,154.885 18.065,154.541 18.005 C 154.190 17.944,153.935 17.809,153.958 17.698 C 153.981 17.589,153.944 17.512,153.875 17.527 C 153.806 17.542,153.563 17.506,153.333 17.446 C 153.104 17.386,152.698 17.301,152.430 17.258 C 152.163 17.214,151.886 17.085,151.815 16.970 C 151.693 16.773,151.367 16.712,150.282 16.680 C 150.015 16.672,149.858 16.595,149.917 16.500 C 149.973 16.408,149.878 16.333,149.704 16.333 C 149.531 16.333,149.339 16.283,149.278 16.222 C 149.217 16.161,148.704 16.086,148.138 16.055 C 147.554 16.023,146.995 15.896,146.846 15.761 C 146.702 15.631,146.527 15.518,146.458 15.512 C 146.390 15.505,146.315 15.494,146.292 15.486 C 145.765 15.312,140.198 15.347,140.057 15.525 M269.292 33.451 C 269.498 33.491,269.835 33.491,270.042 33.451 C 270.248 33.411,270.079 33.379,269.667 33.379 C 269.254 33.379,269.085 33.411,269.292 33.451 M138.951 96.040 C 138.911 96.247,138.877 96.117,138.875 95.750 C 138.874 95.383,138.906 95.214,138.948 95.373 C 138.990 95.532,138.991 95.832,138.951 96.040 " stroke="none" fill="#049ce4" fill-rule="evenodd"></path><path id="path1" d="M139.583 15.713 C 139.325 15.871,131.288 15.937,103.917 16.007 C 68.824 16.097,68.565 16.100,65.917 16.460 C 62.010 16.991,58.559 17.662,56.180 18.355 C 55.592 18.526,54.992 18.667,54.847 18.667 C 54.572 18.667,53.014 19.154,51.580 19.688 C 51.120 19.860,50.633 20.003,50.497 20.006 C 50.361 20.009,49.950 20.156,49.583 20.333 C 49.217 20.510,48.825 20.658,48.713 20.661 C 48.601 20.664,48.188 20.810,47.796 20.986 C 47.404 21.162,46.258 21.659,45.250 22.091 C 42.148 23.420,39.610 24.745,35.367 27.251 C 35.118 27.398,33.561 28.443,32.333 29.286 C 26.455 33.324,18.569 41.031,14.806 46.417 C 13.541 48.228,12.060 50.430,11.947 50.667 C 11.881 50.804,11.607 51.254,11.337 51.667 C 11.067 52.079,10.730 52.642,10.590 52.917 C 10.449 53.192,10.138 53.754,9.899 54.167 C 9.305 55.193,6.833 60.100,6.833 60.253 C 6.833 60.321,6.506 61.136,6.106 62.063 C 5.242 64.069,4.722 65.416,4.575 66.035 C 4.516 66.283,4.367 66.570,4.244 66.671 C 4.121 66.773,3.970 67.269,3.907 67.773 C 3.828 68.402,3.694 68.751,3.479 68.885 C 3.237 69.036,3.167 69.280,3.167 69.965 C 3.167 70.689,3.093 70.918,2.759 71.227 C 2.422 71.540,2.342 71.791,2.300 72.678 C 2.251 73.726,2.240 73.750,1.792 73.743 C 1.327 73.737,1.131 74.189,1.500 74.417 C 1.683 74.530,1.723 76.188,1.558 76.807 C 1.475 77.115,1.366 77.180,1.040 77.118 L 0.626 77.039 0.745 78.894 C 0.811 79.915,0.876 80.823,0.890 80.913 C 0.905 81.002,0.753 81.100,0.554 81.131 C 0.015 81.214,-0.029 82.097,0.031 91.583 C 0.079 99.253,0.106 99.917,0.363 99.919 C 0.769 99.922,0.879 100.092,0.747 100.509 C 0.656 100.797,0.598 100.827,0.484 100.647 C 0.367 100.462,0.338 100.471,0.336 100.694 C 0.334 100.847,0.404 100.997,0.491 101.028 C 0.578 101.058,0.685 101.758,0.729 102.583 C 0.773 103.408,0.824 104.121,0.841 104.167 C 0.859 104.212,0.863 104.309,0.851 104.382 C 0.839 104.455,0.980 104.433,1.164 104.335 C 1.433 104.191,1.500 104.206,1.500 104.411 C 1.500 104.552,1.432 104.667,1.348 104.667 C 1.264 104.667,1.236 104.910,1.284 105.208 C 1.333 105.506,1.383 106.087,1.395 106.500 C 1.416 107.217,1.679 107.766,1.897 107.548 C 1.989 107.455,2.066 108.353,2.063 109.500 C 2.062 109.978,2.325 110.308,2.627 110.208 C 2.757 110.164,2.796 110.236,2.732 110.403 C 2.677 110.548,2.568 110.667,2.492 110.667 C 2.416 110.667,2.460 110.873,2.591 111.125 C 2.722 111.377,2.783 111.733,2.727 111.917 C 2.671 112.100,2.682 112.196,2.751 112.131 C 3.126 111.776,3.467 112.343,3.414 113.233 C 3.363 114.071,3.389 114.144,3.763 114.238 C 4.148 114.335,4.339 114.667,4.010 114.667 C 3.923 114.667,3.895 114.835,3.946 115.042 C 3.998 115.248,4.039 115.579,4.039 115.778 C 4.037 116.021,4.168 116.173,4.435 116.240 C 4.835 116.340,4.996 116.667,4.646 116.667 C 4.524 116.667,4.539 116.765,4.688 116.949 C 4.885 117.192,4.882 117.210,4.667 117.083 C 4.456 116.959,4.451 116.978,4.631 117.200 C 4.749 117.346,4.834 117.529,4.819 117.607 C 4.756 117.962,4.847 118.345,4.976 118.265 C 5.157 118.153,5.538 118.971,5.404 119.186 C 5.277 119.393,5.656 119.860,5.852 119.738 C 5.933 119.688,6.000 119.726,6.000 119.823 C 6.000 119.921,5.921 120.000,5.823 120.000 C 5.726 120.000,5.694 120.076,5.752 120.169 C 5.809 120.263,5.921 120.299,6.001 120.249 C 6.081 120.200,6.110 120.355,6.067 120.593 C 6.011 120.902,6.046 120.991,6.189 120.903 C 6.325 120.819,6.357 120.865,6.288 121.044 C 6.232 121.190,6.295 121.399,6.427 121.508 C 6.559 121.618,6.667 121.886,6.667 122.104 C 6.667 122.332,6.755 122.482,6.875 122.458 C 6.997 122.434,7.075 122.573,7.063 122.792 C 7.052 122.998,7.109 123.167,7.188 123.167 C 7.268 123.167,7.333 123.317,7.333 123.500 C 7.333 123.683,7.427 123.815,7.542 123.792 C 7.663 123.767,7.742 123.906,7.730 124.125 C 7.719 124.331,7.775 124.500,7.855 124.500 C 7.935 124.500,8.000 124.650,8.000 124.833 C 8.000 125.017,8.090 125.148,8.201 125.125 C 8.311 125.102,8.403 125.233,8.405 125.417 C 8.407 125.600,8.486 125.841,8.579 125.953 C 8.673 126.064,8.848 126.272,8.968 126.415 C 9.088 126.557,9.265 126.625,9.361 126.566 C 9.474 126.496,9.495 126.587,9.420 126.822 C 9.278 127.272,9.770 128.392,10.038 128.227 C 10.159 128.152,10.186 128.210,10.115 128.394 C 10.047 128.571,10.130 128.781,10.337 128.958 C 10.518 129.114,10.667 129.337,10.667 129.454 C 10.667 129.571,10.754 129.667,10.861 129.667 C 10.968 129.667,11.006 129.716,10.946 129.776 C 10.786 129.936,11.174 130.348,11.370 130.227 C 11.471 130.165,11.493 130.260,11.425 130.473 C 11.349 130.714,11.420 130.911,11.657 131.114 C 11.846 131.275,12.000 131.503,12.000 131.620 C 12.000 131.738,12.075 131.833,12.167 131.833 C 12.258 131.833,12.333 131.983,12.333 132.167 C 12.333 132.350,12.424 132.481,12.534 132.458 C 12.645 132.435,12.738 132.503,12.742 132.609 C 12.747 132.715,12.957 133.034,13.210 133.317 C 13.462 133.601,13.622 133.833,13.564 133.833 C 13.506 133.833,13.552 133.945,13.665 134.081 C 13.778 134.218,13.950 134.281,14.047 134.221 C 14.155 134.154,14.184 134.214,14.123 134.372 C 14.014 134.658,14.727 135.542,15.208 135.717 C 15.369 135.775,15.500 135.972,15.500 136.154 C 15.500 136.336,15.688 136.761,15.917 137.099 C 16.146 137.437,16.333 137.660,16.333 137.595 C 16.333 137.530,16.446 137.589,16.583 137.726 C 16.721 137.864,16.833 138.019,16.833 138.071 C 16.833 138.124,16.965 138.309,17.125 138.483 C 17.285 138.657,17.679 139.088,18.000 139.439 C 18.321 139.791,18.621 140.077,18.667 140.076 C 18.712 140.075,18.728 140.169,18.701 140.287 C 18.674 140.404,18.730 140.509,18.826 140.521 C 18.922 140.532,19.094 140.553,19.208 140.566 C 19.323 140.580,19.398 140.707,19.374 140.849 C 19.351 140.991,19.520 141.284,19.749 141.500 C 19.979 141.715,20.168 141.822,20.169 141.737 C 20.170 141.653,20.264 141.764,20.377 141.985 C 20.491 142.206,20.724 142.407,20.897 142.432 C 21.069 142.457,21.294 142.562,21.397 142.665 C 21.535 142.804,21.497 142.821,21.250 142.729 C 20.952 142.618,20.941 142.635,21.149 142.889 C 21.276 143.046,21.420 143.136,21.467 143.088 C 21.515 143.041,21.635 143.164,21.735 143.361 C 21.835 143.559,22.058 143.741,22.230 143.765 C 22.403 143.790,22.628 143.895,22.730 143.998 C 22.868 144.138,22.830 144.154,22.583 144.062 C 22.286 143.951,22.275 143.968,22.482 144.223 C 22.610 144.380,22.753 144.469,22.801 144.422 C 22.848 144.374,22.969 144.497,23.068 144.694 C 23.168 144.892,23.391 145.074,23.563 145.099 C 23.736 145.123,23.961 145.228,24.063 145.332 C 24.202 145.471,24.164 145.488,23.917 145.395 C 23.625 145.286,23.611 145.305,23.804 145.542 C 23.925 145.691,24.188 145.838,24.387 145.869 C 24.587 145.900,24.730 146.019,24.707 146.134 C 24.659 146.366,25.263 147.083,25.506 147.083 C 25.591 147.083,25.830 147.254,26.038 147.464 C 26.596 148.024,27.399 148.666,27.542 148.666 C 27.610 148.667,27.667 148.777,27.667 148.911 C 27.667 149.061,27.764 149.119,27.917 149.060 C 28.055 149.007,28.167 149.055,28.167 149.168 C 28.167 149.290,28.301 149.337,28.500 149.285 C 28.684 149.237,28.793 149.263,28.744 149.343 C 28.695 149.423,28.794 149.622,28.964 149.786 C 29.715 150.507,30.430 151.084,30.583 151.093 C 31.103 151.124,31.476 151.370,31.380 151.619 C 31.320 151.776,31.346 151.845,31.442 151.786 C 31.533 151.730,31.902 151.939,32.262 152.250 C 32.675 152.607,32.975 152.758,33.075 152.658 C 33.330 152.403,33.500 152.475,33.500 152.839 C 33.500 153.025,33.628 153.226,33.784 153.286 C 33.941 153.346,34.205 153.512,34.371 153.654 C 34.537 153.797,34.765 153.921,34.878 153.931 C 35.468 153.983,35.529 154.018,35.440 154.248 C 35.388 154.384,35.399 154.489,35.464 154.480 C 35.773 154.438,36.333 154.729,36.333 154.931 C 36.333 155.063,36.437 155.116,36.583 155.060 C 36.721 155.008,36.833 155.047,36.833 155.149 C 36.833 155.250,36.949 155.333,37.090 155.333 C 37.232 155.333,37.508 155.483,37.705 155.667 C 37.902 155.850,38.234 156.000,38.442 156.000 C 38.654 156.000,38.902 156.151,39.005 156.342 C 39.152 156.618,39.298 156.666,39.760 156.593 C 40.090 156.540,40.333 156.572,40.333 156.668 C 40.333 156.759,40.242 156.833,40.130 156.833 C 40.018 156.833,40.089 156.948,40.288 157.087 C 40.513 157.245,40.843 157.307,41.159 157.251 C 41.450 157.200,41.667 157.234,41.667 157.331 C 41.667 157.424,41.575 157.500,41.463 157.500 C 41.351 157.500,41.422 157.614,41.622 157.754 C 41.847 157.911,42.176 157.974,42.492 157.918 C 42.783 157.867,43.000 157.901,43.000 157.998 C 43.000 158.091,42.908 158.167,42.796 158.167 C 42.422 158.167,43.244 158.604,43.663 158.628 C 43.891 158.641,44.153 158.755,44.247 158.882 C 44.340 159.009,44.521 159.078,44.648 159.035 C 44.789 158.987,44.834 159.031,44.763 159.145 C 44.687 159.269,44.820 159.333,45.157 159.333 C 45.494 159.333,45.667 159.416,45.667 159.578 C 45.667 159.727,45.764 159.785,45.917 159.727 C 46.054 159.674,46.167 159.702,46.167 159.788 C 46.167 159.874,46.398 159.944,46.681 159.944 C 46.964 159.944,47.263 160.051,47.345 160.181 C 47.428 160.310,47.496 160.355,47.497 160.280 C 47.499 160.204,47.615 160.257,47.755 160.397 C 47.907 160.550,48.238 160.634,48.578 160.607 C 48.892 160.582,49.115 160.615,49.076 160.679 C 49.036 160.743,49.117 160.890,49.256 161.005 C 49.466 161.179,49.490 161.168,49.403 160.940 C 49.344 160.788,49.380 160.667,49.482 160.667 C 49.643 160.667,49.727 160.866,49.697 161.176 C 49.692 161.226,49.951 161.275,50.272 161.284 C 50.592 161.294,51.003 161.435,51.184 161.599 C 51.481 161.868,51.503 161.869,51.406 161.616 C 51.344 161.455,51.377 161.333,51.482 161.333 C 51.644 161.333,51.729 161.538,51.696 161.847 C 51.690 161.901,51.905 161.944,52.174 161.944 C 52.442 161.944,52.795 162.060,52.956 162.201 C 53.118 162.343,53.381 162.437,53.542 162.411 C 53.702 162.384,53.833 162.427,53.833 162.504 C 53.833 162.582,54.002 162.637,54.208 162.626 C 55.153 162.575,55.667 162.676,55.667 162.911 C 55.667 163.061,55.764 163.119,55.917 163.060 C 56.054 163.008,56.167 163.034,56.167 163.120 C 56.167 163.205,56.410 163.274,56.708 163.274 C 57.705 163.271,58.648 163.396,58.571 163.520 C 58.529 163.588,58.565 163.687,58.651 163.741 C 58.738 163.794,58.843 163.705,58.885 163.544 C 58.949 163.298,58.964 163.305,58.981 163.589 C 58.998 163.895,59.124 163.931,60.281 163.966 C 61.193 163.993,61.648 164.082,61.864 164.278 C 62.030 164.428,62.167 164.493,62.167 164.422 C 62.167 164.351,62.276 164.383,62.409 164.493 C 62.542 164.604,62.786 164.658,62.950 164.614 C 63.481 164.471,66.752 164.739,66.720 164.923 C 66.704 165.018,66.840 165.095,67.023 165.095 C 67.334 165.095,67.336 165.081,67.065 164.883 C 66.905 164.766,66.814 164.630,66.863 164.581 C 67.027 164.417,67.466 164.686,67.549 165.002 C 67.659 165.424,149.280 165.529,149.702 165.108 C 150.061 164.748,149.989 159.782,149.619 159.372 C 149.428 159.161,149.340 158.657,149.302 157.556 C 149.273 156.718,149.194 156.067,149.125 156.109 C 149.056 156.152,149.000 156.102,149.000 156.000 C 149.000 155.898,148.933 155.855,148.851 155.906 C 148.658 156.025,148.464 155.526,148.612 155.288 C 148.682 155.174,148.772 155.227,148.850 155.428 C 148.968 155.729,148.977 155.727,148.988 155.389 C 148.995 155.190,148.926 155.003,148.836 154.972 C 148.700 154.926,148.550 154.111,148.510 153.198 C 148.504 153.079,148.429 153.025,148.341 153.079 C 148.198 153.167,147.793 152.048,147.850 151.719 C 147.914 151.346,147.815 150.992,147.672 151.080 C 147.504 151.184,147.232 150.410,147.306 150.042 C 147.329 149.927,147.265 149.833,147.164 149.833 C 147.063 149.833,147.027 149.758,147.083 149.667 C 147.140 149.575,147.032 149.500,146.843 149.500 C 146.496 149.500,146.379 149.261,146.644 149.097 C 146.724 149.048,146.753 148.820,146.709 148.589 C 146.665 148.359,146.562 148.212,146.481 148.262 C 146.400 148.312,146.333 148.157,146.333 147.917 C 146.333 147.668,146.262 147.525,146.167 147.583 C 146.072 147.642,146.000 147.498,146.000 147.250 C 146.000 147.002,145.928 146.858,145.833 146.917 C 145.738 146.975,145.667 146.832,145.667 146.583 C 145.667 146.335,145.595 146.191,145.500 146.250 C 145.408 146.307,145.333 146.236,145.333 146.093 C 145.333 145.950,145.254 145.833,145.157 145.833 C 145.060 145.833,145.027 145.758,145.083 145.667 C 145.140 145.575,145.032 145.500,144.843 145.500 C 144.468 145.500,144.403 145.330,144.675 145.059 C 144.797 144.937,144.722 144.763,144.428 144.484 C 144.196 144.263,144.004 143.952,144.003 143.792 C 144.001 143.631,143.925 143.500,143.833 143.500 C 143.742 143.500,143.667 143.350,143.667 143.167 C 143.667 142.983,143.576 142.852,143.466 142.875 C 143.355 142.898,143.262 142.829,143.258 142.721 C 143.247 142.443,142.200 141.293,142.045 141.388 C 141.975 141.432,141.909 141.254,141.899 140.994 C 141.888 140.683,141.660 140.295,141.233 139.861 C 140.876 139.498,139.878 138.477,139.016 137.593 C 137.332 135.865,136.130 134.784,135.896 134.787 C 135.816 134.788,135.656 134.654,135.540 134.489 C 135.425 134.324,135.162 134.166,134.957 134.136 C 134.699 134.100,134.600 133.988,134.636 133.775 C 134.665 133.605,134.622 133.508,134.541 133.558 C 134.460 133.608,134.103 133.399,133.749 133.093 C 133.361 132.757,132.957 132.552,132.734 132.577 C 132.473 132.605,132.390 132.547,132.453 132.382 C 132.509 132.237,132.407 132.111,132.188 132.054 C 131.993 132.003,131.833 131.890,131.833 131.804 C 131.833 131.718,131.758 131.693,131.667 131.750 C 131.575 131.807,131.500 131.775,131.500 131.680 C 131.500 131.584,131.296 131.455,131.047 131.393 C 130.798 131.330,130.458 131.152,130.291 130.996 C 130.124 130.841,129.796 130.735,129.561 130.761 C 129.212 130.799,129.150 130.749,129.218 130.487 C 129.265 130.310,129.239 130.205,129.163 130.252 C 129.086 130.300,128.978 130.266,128.923 130.178 C 128.869 130.089,128.563 130.050,128.245 130.091 C 127.756 130.153,127.667 130.114,127.667 129.838 C 127.667 129.601,127.590 129.540,127.389 129.617 C 127.203 129.688,127.151 129.659,127.232 129.528 C 127.314 129.396,127.190 129.333,126.843 129.333 C 126.506 129.333,126.333 129.250,126.333 129.089 C 126.333 128.939,126.236 128.881,126.083 128.940 C 125.946 128.992,125.833 128.952,125.833 128.850 C 125.833 128.730,125.570 128.691,125.086 128.741 C 124.675 128.784,124.346 128.765,124.356 128.701 C 124.410 128.333,124.305 128.188,124.056 128.284 C 123.870 128.355,123.818 128.326,123.899 128.195 C 123.975 128.072,123.909 128.010,123.718 128.027 C 122.899 128.098,122.333 127.987,122.333 127.755 C 122.333 127.606,122.236 127.548,122.083 127.606 C 121.946 127.659,121.833 127.638,121.833 127.559 C 121.833 127.481,121.372 127.399,120.808 127.378 C 120.117 127.352,119.681 127.247,119.468 127.054 C 119.169 126.784,119.158 126.785,119.268 127.070 C 119.370 127.335,119.340 127.349,119.025 127.180 C 118.828 127.075,118.667 126.949,118.667 126.901 C 118.667 126.853,118.760 126.868,118.875 126.934 C 118.996 127.003,119.025 126.990,118.944 126.902 C 118.868 126.818,118.531 126.747,118.194 126.743 C 114.105 126.698,113.667 126.665,113.667 126.407 C 113.667 126.264,113.588 126.195,113.493 126.255 C 113.397 126.314,113.218 126.278,113.094 126.175 C 112.684 125.835,109.072 126.018,109.133 126.376 C 109.250 127.073,109.094 127.079,90.250 127.137 C 69.880 127.199,68.553 127.123,64.360 125.647 C 63.871 125.474,63.346 125.331,63.194 125.328 C 63.041 125.325,62.617 125.177,62.250 125.000 C 61.883 124.823,61.484 124.675,61.363 124.672 C 60.957 124.662,57.102 122.719,55.500 121.717 C 43.108 113.970,36.000 99.058,38.156 85.333 C 38.469 83.343,38.834 81.540,39.101 80.667 C 39.748 78.549,40.192 77.220,40.408 76.750 C 40.535 76.475,40.841 75.762,41.088 75.167 C 41.913 73.174,43.035 71.260,45.287 68.000 C 47.318 65.059,52.153 60.694,55.750 58.552 C 57.247 57.660,62.249 55.339,62.698 55.328 C 62.818 55.325,63.217 55.177,63.583 55.000 C 63.950 54.823,64.421 54.675,64.630 54.672 C 64.840 54.669,65.270 54.558,65.587 54.426 C 65.905 54.293,66.708 54.107,67.374 54.013 C 68.039 53.919,68.841 53.766,69.156 53.674 C 71.303 53.044,102.188 52.957,104.000 53.576 C 104.999 53.917,108.275 54.062,108.454 53.773 C 108.511 53.681,108.461 53.671,108.333 53.750 C 108.192 53.837,108.155 53.820,108.230 53.700 C 108.293 53.598,108.466 53.562,108.616 53.619 C 108.800 53.690,108.848 53.659,108.765 53.524 C 108.697 53.415,108.704 53.336,108.779 53.349 C 109.748 53.517,111.014 53.305,110.914 52.992 C 110.766 52.524,111.085 52.195,111.808 52.071 C 121.911 50.341,133.674 39.897,137.418 29.333 C 138.107 27.390,138.667 25.582,138.667 25.300 C 138.667 25.130,138.860 24.530,139.097 23.967 C 139.488 23.038,139.546 22.603,139.722 19.222 C 139.829 17.175,139.917 15.502,139.917 15.505 C 139.917 15.508,139.767 15.602,139.583 15.713 M138.705 65.833 C 138.705 66.154,138.740 66.285,138.782 66.125 C 138.823 65.965,138.823 65.702,138.782 65.542 C 138.740 65.381,138.705 65.512,138.705 65.833 M111.958 126.623 C 111.523 126.657,110.810 126.657,110.375 126.623 C 109.940 126.588,110.296 126.560,111.167 126.560 C 112.037 126.560,112.394 126.588,111.958 126.623 " stroke="none" fill="#e4047c" fill-rule="evenodd"></path><path id="path2" d="M81.750 0.120 C 81.475 0.161,81.130 0.302,80.984 0.434 C 80.782 0.615,80.176 0.675,78.484 0.684 C 77.204 0.690,76.161 0.769,76.042 0.868 C 75.927 0.963,75.833 0.980,75.833 0.905 C 75.833 0.831,75.739 0.899,75.623 1.057 C 75.456 1.286,75.147 1.346,74.120 1.352 C 72.791 1.359,71.848 1.539,71.675 1.821 C 71.620 1.908,70.999 2.012,70.295 2.050 C 69.478 2.094,68.859 2.221,68.587 2.399 C 68.353 2.552,67.776 2.701,67.306 2.729 C 66.762 2.762,66.380 2.877,66.256 3.047 C 66.127 3.223,65.708 3.341,65.015 3.395 C 64.381 3.444,63.852 3.583,63.670 3.747 C 63.505 3.897,63.050 4.051,62.660 4.090 C 62.269 4.128,61.819 4.279,61.658 4.425 C 61.497 4.570,61.057 4.711,60.680 4.738 C 60.303 4.765,59.864 4.901,59.705 5.040 C 59.547 5.179,59.067 5.343,58.639 5.404 C 58.211 5.466,57.770 5.625,57.660 5.758 C 57.550 5.891,57.281 6.000,57.063 6.000 C 56.845 6.000,56.511 6.156,56.321 6.346 C 56.121 6.546,55.688 6.720,55.296 6.759 C 54.922 6.796,54.497 6.932,54.350 7.062 C 54.203 7.191,53.846 7.347,53.556 7.408 C 53.265 7.470,52.986 7.628,52.936 7.760 C 52.885 7.892,52.654 8.000,52.422 8.000 C 52.190 8.000,51.836 8.164,51.636 8.364 C 51.436 8.564,51.091 8.735,50.868 8.745 C 50.646 8.755,50.361 8.904,50.234 9.077 C 50.108 9.250,49.808 9.400,49.568 9.410 C 49.327 9.421,49.037 9.558,48.922 9.715 C 48.807 9.872,48.553 10.000,48.357 10.000 C 48.160 10.000,47.858 10.142,47.684 10.316 C 47.510 10.490,47.141 10.682,46.864 10.743 C 46.588 10.804,46.323 10.952,46.277 11.072 C 46.231 11.192,45.987 11.342,45.735 11.406 C 45.483 11.469,45.092 11.666,44.866 11.844 C 44.640 12.021,44.397 12.167,44.326 12.167 C 44.127 12.167,42.833 13.044,42.833 13.178 C 42.833 13.244,42.633 13.347,42.388 13.409 C 42.143 13.470,41.758 13.666,41.532 13.844 C 41.306 14.021,41.031 14.167,40.920 14.167 C 40.809 14.167,40.583 14.317,40.417 14.500 C 40.251 14.683,40.014 14.833,39.891 14.833 C 39.768 14.833,39.667 14.910,39.667 15.004 C 39.667 15.097,39.460 15.263,39.208 15.372 C 38.758 15.566,37.370 16.614,36.785 17.201 C 36.621 17.365,36.389 17.500,36.269 17.500 C 36.150 17.500,35.916 17.650,35.750 17.833 C 35.584 18.017,35.391 18.167,35.321 18.167 C 35.251 18.167,34.882 18.467,34.500 18.833 C 34.118 19.200,33.719 19.500,33.611 19.501 C 33.504 19.501,33.042 19.840,32.583 20.253 C 32.125 20.667,31.314 21.398,30.782 21.878 C 30.250 22.357,29.443 23.123,28.990 23.579 C 28.537 24.035,28.167 24.336,28.167 24.248 C 28.167 24.160,27.117 25.136,25.833 26.417 C 24.550 27.698,23.500 28.827,23.500 28.926 C 23.500 29.025,23.331 29.262,23.125 29.451 C 22.662 29.876,22.167 30.523,22.167 30.701 C 22.167 30.774,22.086 30.833,21.987 30.833 C 21.655 30.833,19.427 33.371,19.604 33.548 C 19.656 33.600,19.354 33.988,18.933 34.409 C 18.511 34.831,18.167 35.230,18.167 35.298 C 18.167 35.365,18.017 35.513,17.833 35.628 C 17.650 35.742,17.500 35.976,17.500 36.148 C 17.500 36.319,17.200 36.769,16.833 37.147 C 16.467 37.525,16.167 37.897,16.167 37.974 C 16.167 38.052,16.017 38.251,15.833 38.417 C 15.650 38.583,15.500 38.820,15.500 38.944 C 15.500 39.068,15.350 39.298,15.167 39.455 C 14.983 39.612,14.833 39.825,14.833 39.928 C 14.833 40.031,14.683 40.251,14.500 40.417 C 14.317 40.583,14.167 40.814,14.167 40.931 C 14.167 41.047,14.036 41.274,13.876 41.433 C 13.560 41.749,13.451 41.918,12.853 43.019 C 12.634 43.421,12.400 43.788,12.333 43.833 C 12.266 43.879,12.153 44.104,12.082 44.333 C 12.010 44.562,11.854 44.824,11.734 44.916 C 11.615 45.008,11.166 45.758,10.737 46.583 C 10.308 47.408,9.855 48.202,9.729 48.346 C 9.603 48.491,9.500 48.725,9.500 48.866 C 9.500 49.006,9.350 49.312,9.167 49.545 C 8.983 49.779,8.833 50.079,8.833 50.212 C 8.833 50.346,8.690 50.638,8.514 50.861 C 8.338 51.085,8.143 51.542,8.080 51.878 C 8.017 52.214,7.862 52.573,7.737 52.677 C 7.611 52.782,7.459 53.132,7.398 53.456 C 7.337 53.780,7.141 54.193,6.961 54.372 C 6.762 54.571,6.662 54.847,6.706 55.077 C 6.753 55.320,6.669 55.522,6.473 55.645 C 6.304 55.750,6.167 55.953,6.167 56.095 C 6.167 56.237,5.972 56.766,5.733 57.270 C 5.495 57.774,5.337 58.328,5.382 58.501 C 5.428 58.679,5.333 58.933,5.161 59.089 C 4.994 59.240,4.806 59.675,4.744 60.057 C 4.682 60.438,4.526 60.868,4.399 61.012 C 4.272 61.156,4.120 61.644,4.062 62.096 C 4.003 62.547,3.859 63.029,3.742 63.167 C 3.625 63.304,3.476 63.792,3.411 64.250 C 3.346 64.708,3.199 65.196,3.085 65.333 C 2.971 65.471,2.830 66.063,2.772 66.650 C 2.714 67.236,2.581 67.819,2.477 67.945 C 2.275 68.188,2.203 68.532,2.049 70.000 C 1.996 70.504,1.855 71.067,1.735 71.250 C 1.286 71.942,1.356 73.750,1.833 73.750 C 2.229 73.750,2.252 73.697,2.300 72.678 C 2.342 71.791,2.422 71.540,2.759 71.227 C 3.093 70.918,3.167 70.689,3.167 69.965 C 3.167 69.280,3.237 69.036,3.479 68.885 C 3.694 68.751,3.828 68.402,3.907 67.773 C 3.970 67.269,4.121 66.773,4.244 66.671 C 4.367 66.570,4.516 66.283,4.575 66.035 C 4.722 65.416,5.242 64.069,6.106 62.063 C 6.506 61.136,6.833 60.321,6.833 60.253 C 6.833 60.100,9.305 55.193,9.899 54.167 C 10.138 53.754,10.449 53.192,10.590 52.917 C 10.730 52.642,11.067 52.079,11.337 51.667 C 11.607 51.254,11.881 50.804,11.947 50.667 C 12.060 50.430,13.541 48.228,14.806 46.417 C 18.569 41.031,26.455 33.324,32.333 29.286 C 33.561 28.443,35.118 27.398,35.367 27.251 C 39.610 24.745,42.148 23.420,45.250 22.091 C 46.258 21.659,47.404 21.162,47.796 20.986 C 48.188 20.810,48.601 20.664,48.713 20.661 C 48.825 20.658,49.217 20.510,49.583 20.333 C 49.950 20.156,50.361 20.009,50.497 20.006 C 50.633 20.003,51.120 19.860,51.580 19.688 C 53.014 19.154,54.572 18.667,54.847 18.667 C 54.992 18.667,55.592 18.526,56.180 18.355 C 58.559 17.662,62.010 16.991,65.917 16.460 C 68.565 16.100,68.824 16.097,103.917 16.007 C 137.619 15.921,139.276 15.903,139.803 15.615 C 140.365 15.308,140.319 14.833,139.728 14.833 C 139.601 14.833,139.368 14.683,139.211 14.500 C 139.054 14.317,138.842 14.167,138.739 14.167 C 138.636 14.167,138.416 14.017,138.250 13.833 C 138.084 13.650,137.847 13.500,137.723 13.500 C 137.598 13.500,137.368 13.350,137.211 13.167 C 137.054 12.983,136.842 12.833,136.739 12.833 C 136.636 12.833,136.416 12.683,136.250 12.500 C 136.084 12.317,135.858 12.167,135.747 12.167 C 135.636 12.167,135.354 12.017,135.121 11.833 C 134.888 11.650,134.578 11.500,134.432 11.500 C 134.286 11.500,134.014 11.348,133.828 11.161 C 133.642 10.975,133.260 10.777,132.980 10.721 C 132.700 10.665,132.434 10.522,132.388 10.403 C 132.343 10.284,132.079 10.137,131.802 10.077 C 131.526 10.016,131.157 9.824,130.983 9.650 C 130.809 9.476,130.517 9.333,130.333 9.333 C 130.150 9.333,129.843 9.176,129.650 8.984 C 129.424 8.757,129.161 8.661,128.904 8.710 C 128.628 8.763,128.479 8.697,128.415 8.494 C 128.361 8.326,128.084 8.157,127.761 8.096 C 127.453 8.039,127.110 7.883,127.000 7.750 C 126.890 7.617,126.548 7.461,126.239 7.404 C 125.931 7.346,125.595 7.197,125.492 7.074 C 125.390 6.951,124.980 6.801,124.581 6.741 C 124.182 6.681,123.817 6.532,123.770 6.409 C 123.723 6.286,123.399 6.134,123.050 6.071 C 122.702 6.009,122.295 5.852,122.147 5.723 C 121.999 5.594,121.603 5.463,121.268 5.433 C 120.934 5.403,120.523 5.255,120.355 5.103 C 120.187 4.951,119.731 4.795,119.340 4.756 C 118.950 4.717,118.495 4.563,118.330 4.414 C 118.165 4.264,117.719 4.118,117.341 4.090 C 116.962 4.062,116.519 3.918,116.355 3.770 C 116.183 3.614,115.610 3.457,114.987 3.397 C 114.348 3.335,113.837 3.194,113.719 3.046 C 113.591 2.886,113.118 2.773,112.386 2.727 C 111.612 2.678,111.187 2.571,111.051 2.392 C 110.913 2.210,110.480 2.106,109.635 2.053 C 108.888 2.006,108.312 1.881,108.144 1.730 C 107.960 1.563,107.338 1.453,106.227 1.392 C 105.077 1.328,104.495 1.222,104.290 1.040 C 103.998 0.780,103.118 0.698,100.387 0.676 C 99.479 0.669,99.120 0.596,98.899 0.375 C 98.617 0.093,83.441 -0.133,81.750 0.120 M144.960 15.451 C 145.168 15.491,145.468 15.490,145.627 15.448 C 145.786 15.406,145.617 15.374,145.250 15.375 C 144.883 15.377,144.753 15.411,144.960 15.451 M393.708 15.448 C 393.869 15.490,394.131 15.490,394.292 15.448 C 394.452 15.406,394.321 15.372,394.000 15.372 C 393.679 15.372,393.548 15.406,393.708 15.448 M392.011 15.737 C 391.850 15.931,391.876 15.958,392.157 15.884 C 392.346 15.835,392.500 15.728,392.500 15.647 C 392.500 15.422,392.231 15.472,392.011 15.737 M139.123 23.893 C 138.869 24.548,138.663 25.202,138.664 25.347 C 138.666 25.589,138.076 27.478,137.418 29.333 C 134.301 38.129,126.146 46.558,117.083 50.351 C 115.369 51.069,112.833 51.896,111.808 52.071 C 111.085 52.195,110.766 52.524,110.914 52.992 C 111.015 53.311,111.153 53.333,112.997 53.333 C 114.272 53.333,114.994 53.398,115.033 53.515 C 115.120 53.778,116.402 53.979,118.010 53.982 C 119.121 53.985,119.452 54.043,119.613 54.263 C 119.758 54.461,120.133 54.556,120.927 54.598 C 121.719 54.639,122.097 54.735,122.240 54.932 C 122.365 55.103,122.745 55.230,123.242 55.267 C 123.712 55.302,124.120 55.433,124.230 55.584 C 124.333 55.725,124.718 55.887,125.084 55.943 C 125.450 55.999,125.867 56.147,126.011 56.271 C 126.154 56.395,126.522 56.546,126.829 56.607 C 127.135 56.669,127.524 56.857,127.693 57.026 C 127.862 57.195,128.179 57.333,128.399 57.333 C 128.618 57.333,128.834 57.429,128.879 57.546 C 128.924 57.663,129.379 57.971,129.890 58.229 C 130.402 58.488,130.907 58.805,131.014 58.933 C 131.120 59.062,131.336 59.167,131.492 59.167 C 131.649 59.167,132.108 59.464,132.513 59.828 C 132.919 60.192,133.456 60.536,133.708 60.592 C 133.960 60.647,134.167 60.757,134.167 60.835 C 134.167 60.914,134.317 61.025,134.500 61.083 C 134.683 61.142,134.833 61.293,134.833 61.420 C 134.833 61.546,134.939 61.710,135.068 61.783 C 135.292 61.910,136.494 62.955,137.894 64.239 L 138.538 64.829 139.032 64.477 C 139.304 64.284,139.558 64.041,139.598 63.938 C 139.637 63.834,139.650 54.514,139.626 43.226 L 139.583 22.702 139.123 23.893 M164.932 24.583 C 165.082 24.813,165.271 25.000,165.351 25.000 C 165.432 25.000,165.335 24.813,165.136 24.583 C 164.936 24.354,164.748 24.167,164.716 24.167 C 164.685 24.167,164.782 24.354,164.932 24.583 M169.167 29.033 C 169.167 29.154,169.321 29.350,169.510 29.468 C 169.825 29.664,169.839 29.655,169.676 29.350 C 169.448 28.925,169.167 28.750,169.167 29.033 M267.500 33.677 C 267.500 33.774,267.430 33.810,267.345 33.757 C 267.260 33.704,267.143 33.737,267.085 33.831 C 266.919 34.099,267.437 34.027,267.667 33.750 C 267.810 33.577,267.816 33.500,267.687 33.500 C 267.584 33.500,267.500 33.579,267.500 33.677 M268.958 33.621 C 269.256 33.658,269.744 33.658,270.042 33.621 C 270.340 33.584,270.096 33.553,269.500 33.553 C 268.904 33.553,268.660 33.584,268.958 33.621 M366.345 33.736 C 366.221 33.886,366.169 34.057,366.229 34.118 C 366.385 34.274,366.718 33.903,366.638 33.663 C 366.592 33.525,366.501 33.548,366.345 33.736 M263.651 34.436 C 263.457 34.669,263.470 34.697,263.741 34.644 C 263.914 34.611,264.087 34.490,264.125 34.375 C 264.224 34.078,263.915 34.117,263.651 34.436 M274.893 34.417 C 275.030 34.554,275.183 34.667,275.233 34.667 C 275.282 34.667,275.280 34.554,275.227 34.417 C 275.174 34.279,275.021 34.167,274.887 34.167 C 274.675 34.167,274.676 34.200,274.893 34.417 M260.317 35.769 C 260.124 36.002,260.136 36.030,260.408 35.978 C 260.581 35.944,260.754 35.823,260.792 35.708 C 260.891 35.411,260.582 35.451,260.317 35.769 M278.406 35.649 C 278.468 35.749,278.673 35.914,278.863 36.016 C 279.109 36.148,279.175 36.148,279.094 36.018 C 279.032 35.917,278.827 35.752,278.637 35.651 C 278.391 35.519,278.325 35.518,278.406 35.649 M256.666 38.175 C 256.345 38.440,256.173 38.660,256.283 38.662 C 256.507 38.667,257.424 37.868,257.317 37.761 C 257.279 37.723,256.986 37.910,256.666 38.175 M363.667 39.333 C 363.530 39.589,363.540 39.667,363.709 39.667 C 363.830 39.667,363.940 39.517,363.954 39.333 C 363.968 39.150,363.949 39.000,363.912 39.000 C 363.875 39.000,363.765 39.150,363.667 39.333 M254.315 40.708 C 254.119 41.081,254.120 41.082,254.476 40.766 C 254.873 40.413,254.909 40.333,254.673 40.333 C 254.584 40.333,254.423 40.502,254.315 40.708 M286.692 43.906 C 286.799 44.141,286.952 44.333,287.033 44.333 C 287.203 44.333,286.909 43.733,286.665 43.582 C 286.569 43.523,286.581 43.662,286.692 43.906 M251.012 46.402 C 250.888 46.552,250.835 46.724,250.896 46.785 C 251.051 46.940,251.384 46.570,251.304 46.330 C 251.258 46.192,251.168 46.214,251.012 46.402 M361.697 47.036 C 361.589 47.145,361.500 47.348,361.500 47.487 C 361.500 47.661,361.584 47.621,361.767 47.360 C 362.059 46.942,362.012 46.721,361.697 47.036 M288.005 47.208 C 288.002 47.369,288.070 47.500,288.154 47.500 C 288.239 47.500,288.343 47.631,288.385 47.792 C 288.444 48.018,288.466 48.025,288.481 47.824 C 288.491 47.681,288.390 47.418,288.255 47.240 C 288.034 46.947,288.010 46.944,288.005 47.208 M361.381 49.417 C 361.382 49.875,361.415 50.043,361.453 49.789 C 361.491 49.536,361.490 49.161,361.451 48.956 C 361.411 48.751,361.380 48.958,361.381 49.417 M177.333 49.038 C 177.333 49.342,177.629 49.593,177.793 49.429 C 177.850 49.372,177.770 49.199,177.615 49.044 C 177.355 48.784,177.333 48.783,177.333 49.038 M250.052 51.250 C 250.053 51.800,250.084 52.005,250.121 51.705 C 250.158 51.406,250.157 50.956,250.119 50.705 C 250.081 50.455,250.051 50.700,250.052 51.250 M71.917 53.350 C 70.817 53.424,69.429 53.596,68.833 53.733 C 68.237 53.870,67.391 54.029,66.952 54.085 C 66.513 54.142,65.897 54.296,65.582 54.428 C 65.268 54.559,64.840 54.669,64.630 54.672 C 64.421 54.675,63.950 54.823,63.583 55.000 C 63.217 55.177,62.818 55.325,62.698 55.328 C 62.249 55.339,57.247 57.660,55.750 58.552 C 52.153 60.694,47.318 65.059,45.287 68.000 C 43.035 71.260,41.913 73.174,41.088 75.167 C 40.841 75.762,40.535 76.475,40.408 76.750 C 40.192 77.220,39.748 78.549,39.101 80.667 C 38.834 81.540,38.469 83.343,38.156 85.333 C 36.000 99.058,43.108 113.970,55.500 121.717 C 57.102 122.719,60.957 124.662,61.363 124.672 C 61.484 124.675,61.883 124.823,62.250 125.000 C 62.617 125.177,63.041 125.325,63.194 125.328 C 63.346 125.331,63.871 125.474,64.360 125.647 C 68.553 127.123,69.880 127.199,90.250 127.137 C 109.242 127.078,109.177 127.081,109.121 126.335 C 109.096 126.006,109.011 125.990,107.453 126.028 C 106.266 126.057,105.775 126.009,105.680 125.855 C 105.525 125.604,104.499 125.343,103.645 125.337 C 103.313 125.335,102.952 125.227,102.844 125.096 C 102.736 124.966,102.333 124.810,101.949 124.749 C 101.564 124.688,100.933 124.489,100.546 124.306 C 100.158 124.123,99.708 124.001,99.546 124.033 C 99.383 124.065,99.138 123.957,99.000 123.792 C 98.857 123.621,98.452 123.464,98.054 123.426 C 97.644 123.386,97.216 123.216,97.013 123.013 C 96.822 122.822,96.506 122.667,96.310 122.667 C 96.114 122.667,95.860 122.538,95.745 122.381 C 95.630 122.224,95.359 122.088,95.143 122.078 C 94.927 122.069,94.451 121.787,94.086 121.452 C 93.721 121.117,93.221 120.798,92.975 120.744 C 92.729 120.690,92.486 120.538,92.436 120.406 C 92.385 120.275,92.241 120.167,92.114 120.167 C 91.988 120.167,91.749 120.017,91.583 119.833 C 91.417 119.650,91.184 119.500,91.064 119.500 C 90.944 119.500,90.712 119.365,90.548 119.201 C 90.384 119.036,89.837 118.568,89.333 118.160 C 88.829 117.753,88.319 117.287,88.199 117.126 C 88.079 116.965,87.893 116.833,87.786 116.833 C 87.528 116.833,85.167 114.482,85.167 114.225 C 85.167 114.114,84.986 113.882,84.765 113.708 C 84.544 113.534,84.178 113.120,83.952 112.787 C 83.726 112.453,83.494 112.228,83.437 112.285 C 83.380 112.342,83.333 112.301,83.333 112.194 C 83.333 112.088,83.196 111.863,83.029 111.695 C 82.861 111.528,82.480 110.965,82.183 110.445 C 81.886 109.925,81.574 109.500,81.491 109.500 C 81.408 109.500,81.291 109.294,81.231 109.042 C 81.171 108.790,81.027 108.471,80.910 108.333 C 80.573 107.936,79.167 105.086,79.167 104.800 C 79.167 104.657,79.062 104.454,78.933 104.347 C 78.805 104.240,78.649 103.950,78.587 103.701 C 78.525 103.453,78.359 103.122,78.218 102.965 C 78.077 102.809,77.938 102.371,77.910 101.993 C 77.882 101.614,77.740 101.174,77.596 101.014 C 77.452 100.854,77.333 100.535,77.333 100.303 C 77.333 99.784,77.013 98.833,76.838 98.833 C 76.767 98.833,76.675 98.198,76.634 97.421 C 76.580 96.395,76.482 95.923,76.272 95.691 C 75.838 95.212,75.839 84.787,76.273 84.308 C 76.474 84.086,76.572 83.608,76.618 82.629 C 76.654 81.876,76.750 81.218,76.831 81.168 C 77.072 81.019,77.313 80.241,77.297 79.668 C 77.289 79.375,77.364 79.084,77.464 79.022 C 77.706 78.873,78.000 78.078,78.000 77.572 C 78.000 77.349,78.066 77.167,78.146 77.167 C 78.361 77.167,78.720 76.213,78.612 75.932 C 78.561 75.799,78.628 75.602,78.759 75.492 C 79.017 75.279,80.000 73.430,80.000 73.160 C 80.000 73.070,80.262 72.623,80.583 72.167 C 80.904 71.710,81.167 71.236,81.167 71.113 C 81.167 70.990,81.466 70.558,81.831 70.153 C 82.196 69.748,82.496 69.295,82.498 69.146 C 82.499 68.997,82.800 68.556,83.167 68.167 C 83.533 67.777,83.833 67.351,83.833 67.220 C 83.833 67.088,83.903 67.023,83.988 67.076 C 84.072 67.128,84.354 66.856,84.613 66.472 C 85.244 65.533,87.504 63.167,87.769 63.167 C 87.886 63.167,88.079 63.035,88.199 62.874 C 88.319 62.713,88.829 62.247,89.333 61.839 C 89.837 61.431,90.362 60.999,90.500 60.878 C 90.916 60.512,92.004 59.833,92.174 59.833 C 92.262 59.833,92.333 59.755,92.333 59.659 C 92.333 59.563,92.540 59.391,92.792 59.277 C 93.542 58.938,94.500 58.311,94.500 58.158 C 94.500 58.079,94.760 57.966,95.078 57.907 C 95.396 57.847,95.694 57.675,95.743 57.524 C 95.796 57.357,96.039 57.235,96.364 57.212 C 96.658 57.192,96.963 57.061,97.041 56.921 C 97.119 56.781,97.367 56.667,97.592 56.667 C 97.816 56.667,98.150 56.517,98.333 56.333 C 98.517 56.150,98.837 56.000,99.046 56.000 C 99.255 56.000,99.605 55.875,99.824 55.721 C 100.115 55.517,100.185 55.506,100.082 55.680 C 100.006 55.810,100.102 55.777,100.298 55.606 C 100.493 55.435,100.962 55.271,101.341 55.243 C 101.719 55.215,102.164 55.070,102.328 54.921 C 102.494 54.771,102.997 54.625,103.456 54.594 C 105.830 54.433,105.542 53.847,102.837 53.334 C 101.780 53.134,74.922 53.147,71.917 53.350 M108.789 53.563 C 108.845 53.654,108.771 53.678,108.616 53.619 C 108.466 53.562,108.310 53.570,108.267 53.639 C 108.123 53.873,108.965 53.827,109.162 53.589 C 109.321 53.397,109.295 53.357,109.024 53.377 C 108.840 53.391,108.734 53.475,108.789 53.563 M106.875 53.948 C 107.035 53.990,107.298 53.990,107.458 53.948 C 107.619 53.906,107.487 53.872,107.167 53.872 C 106.846 53.872,106.715 53.906,106.875 53.948 M289.061 55.749 C 289.008 55.886,288.900 55.958,288.821 55.909 C 288.659 55.809,288.577 56.106,288.336 57.667 C 287.714 61.705,288.242 96.741,288.942 97.874 C 288.997 97.963,289.178 98.610,289.343 99.310 C 289.782 101.168,290.103 102.226,290.402 102.805 C 290.548 103.087,290.667 103.400,290.667 103.502 C 290.667 103.604,290.967 104.324,291.333 105.103 C 291.700 105.882,292.000 106.557,292.000 106.602 C 292.000 106.647,292.461 107.487,293.024 108.467 C 301.185 122.678,317.169 129.785,333.167 126.316 C 334.037 126.127,335.087 125.864,335.500 125.730 C 335.912 125.597,336.587 125.385,337.000 125.260 C 343.923 123.149,351.372 117.446,355.846 110.833 C 356.984 109.150,358.874 105.629,359.399 104.211 C 359.527 103.866,359.797 103.171,359.999 102.667 C 360.326 101.850,360.588 100.955,361.144 98.750 C 361.236 98.383,361.486 97.221,361.698 96.167 L 362.083 94.250 362.083 77.083 C 362.083 61.255,362.060 59.813,361.788 58.588 C 361.295 56.373,360.902 56.600,360.727 59.200 C 360.657 60.232,360.536 60.849,360.365 61.045 C 360.224 61.208,360.088 61.658,360.064 62.045 C 360.039 62.433,359.865 63.047,359.676 63.410 C 359.488 63.773,359.333 64.245,359.333 64.458 C 359.333 64.671,359.212 65.030,359.064 65.256 C 358.916 65.482,358.777 65.886,358.756 66.153 C 358.735 66.420,358.600 66.757,358.456 66.901 C 358.312 67.045,358.145 67.384,358.086 67.653 C 358.027 67.923,357.871 68.233,357.739 68.342 C 357.608 68.451,357.500 68.672,357.500 68.831 C 357.500 68.991,357.350 69.313,357.166 69.546 C 356.982 69.780,356.816 70.165,356.796 70.402 C 356.777 70.639,356.670 70.833,356.560 70.833 C 356.450 70.833,356.271 71.099,356.164 71.424 C 356.057 71.749,355.718 72.289,355.411 72.625 C 355.104 72.960,354.807 73.416,354.751 73.640 C 354.695 73.863,354.293 74.403,353.858 74.841 C 353.423 75.278,352.850 75.962,352.586 76.360 C 352.027 77.200,349.171 80.167,348.920 80.167 C 348.826 80.167,348.422 80.467,348.021 80.833 C 347.619 81.200,347.255 81.500,347.210 81.500 C 347.165 81.500,346.893 81.756,346.606 82.070 C 346.318 82.383,345.892 82.688,345.659 82.746 C 345.425 82.805,344.959 83.104,344.624 83.412 C 344.288 83.719,343.792 84.019,343.521 84.079 C 343.250 84.138,342.990 84.285,342.944 84.405 C 342.898 84.526,342.654 84.676,342.402 84.739 C 342.149 84.802,341.758 84.999,341.532 85.177 C 341.306 85.355,340.991 85.500,340.831 85.500 C 340.672 85.500,340.451 85.608,340.342 85.739 C 340.233 85.871,339.906 86.031,339.616 86.094 C 339.326 86.158,339.006 86.322,338.906 86.459 C 338.806 86.596,338.439 86.733,338.090 86.764 C 337.742 86.796,337.335 86.927,337.186 87.057 C 337.038 87.187,336.561 87.344,336.127 87.406 C 335.693 87.469,335.228 87.629,335.095 87.762 C 334.962 87.895,334.434 88.033,333.922 88.069 C 333.411 88.105,332.813 88.251,332.593 88.395 C 332.324 88.571,331.678 88.676,330.598 88.718 C 329.410 88.764,328.923 88.851,328.696 89.057 C 328.225 89.483,322.099 89.470,321.609 89.042 C 321.372 88.834,321.317 88.822,321.420 89.000 C 321.547 89.220,321.528 89.221,321.264 89.007 C 321.062 88.842,320.475 88.749,319.458 88.719 C 318.299 88.685,317.874 88.607,317.614 88.379 C 317.412 88.202,317.332 88.179,317.416 88.320 C 317.518 88.494,317.449 88.483,317.157 88.279 C 316.930 88.120,316.441 88.000,316.018 88.000 C 315.588 88.000,315.158 87.893,314.996 87.747 C 314.842 87.607,314.388 87.461,313.986 87.421 C 313.585 87.381,313.176 87.239,313.078 87.105 C 312.980 86.971,312.625 86.809,312.289 86.746 C 311.953 86.683,311.597 86.533,311.496 86.412 C 311.396 86.292,311.011 86.141,310.639 86.079 C 310.268 86.016,309.823 85.823,309.649 85.649 C 309.475 85.475,309.146 85.333,308.917 85.333 C 308.688 85.333,308.500 85.272,308.500 85.196 C 308.500 85.049,307.221 84.167,307.008 84.167 C 306.936 84.167,306.699 84.027,306.481 83.856 C 306.262 83.686,305.896 83.487,305.667 83.415 C 305.438 83.344,305.176 83.197,305.084 83.090 C 304.754 82.705,303.200 81.500,303.034 81.500 C 302.789 81.500,299.485 78.324,297.530 76.209 C 296.641 75.247,295.833 74.116,295.833 73.834 C 295.833 73.751,295.740 73.623,295.625 73.550 C 295.342 73.369,294.696 72.432,294.501 71.919 C 294.413 71.689,294.273 71.500,294.189 71.500 C 294.105 71.500,293.986 71.300,293.924 71.055 C 293.863 70.810,293.667 70.425,293.490 70.199 C 293.312 69.973,293.167 69.679,293.167 69.545 C 293.167 69.412,293.017 69.112,292.833 68.879 C 292.650 68.646,292.500 68.319,292.500 68.154 C 292.500 67.988,292.369 67.754,292.208 67.634 C 292.048 67.515,291.900 67.192,291.880 66.918 C 291.859 66.644,291.721 66.330,291.572 66.221 C 291.423 66.113,291.277 65.812,291.248 65.553 C 291.154 64.746,291.045 64.415,290.881 64.449 C 290.794 64.467,290.714 64.392,290.704 64.282 C 290.578 62.933,290.510 62.620,290.288 62.372 C 290.121 62.185,290.002 61.625,289.950 60.783 C 289.893 59.858,289.785 59.389,289.574 59.156 C 289.328 58.885,289.283 58.550,289.305 57.165 C 289.331 55.570,289.268 55.208,289.061 55.749 M249.679 57.735 C 249.569 57.867,249.440 58.599,249.390 59.362 C 249.335 60.222,249.209 60.853,249.060 61.020 C 248.928 61.169,248.785 61.761,248.743 62.336 C 248.691 63.050,248.579 63.444,248.389 63.583 C 248.211 63.713,248.095 64.073,248.066 64.589 C 248.038 65.097,247.928 65.444,247.767 65.534 C 247.628 65.612,247.465 65.934,247.406 66.249 C 247.347 66.564,247.194 66.908,247.066 67.014 C 246.938 67.121,246.833 67.331,246.833 67.481 C 246.833 67.632,246.689 68.024,246.513 68.353 C 246.337 68.681,246.168 69.089,246.138 69.260 C 246.108 69.430,245.985 69.685,245.865 69.826 C 245.433 70.334,244.833 71.353,244.833 71.579 C 244.833 71.706,244.703 71.940,244.543 72.100 C 244.251 72.392,244.163 72.523,243.627 73.465 C 243.468 73.745,243.108 74.224,242.827 74.529 C 242.547 74.834,242.050 75.483,241.724 75.971 C 241.017 77.031,237.926 80.167,237.589 80.167 C 237.459 80.167,237.254 80.299,237.134 80.460 C 237.015 80.621,236.504 81.085,236.000 81.490 C 235.496 81.896,235.004 82.321,234.906 82.436 C 234.809 82.551,234.543 82.691,234.315 82.749 C 234.087 82.806,233.619 83.110,233.276 83.425 C 232.932 83.740,232.456 84.047,232.218 84.106 C 231.980 84.166,231.646 84.354,231.476 84.524 C 231.306 84.694,231.047 84.833,230.901 84.833 C 230.755 84.833,230.445 84.983,230.212 85.167 C 229.979 85.350,229.658 85.500,229.498 85.500 C 229.338 85.500,229.118 85.608,229.009 85.739 C 228.900 85.871,228.596 86.026,228.333 86.083 C 228.071 86.141,227.767 86.296,227.658 86.427 C 227.549 86.559,227.297 86.667,227.098 86.667 C 226.900 86.667,226.443 86.817,226.083 87.000 C 225.724 87.183,225.274 87.333,225.083 87.333 C 224.893 87.333,224.440 87.487,224.077 87.675 C 223.714 87.863,223.055 88.043,222.614 88.075 C 222.135 88.110,221.731 88.240,221.614 88.396 C 221.460 88.601,221.018 88.670,219.611 88.708 C 218.108 88.750,217.778 88.806,217.644 89.046 C 217.399 89.485,210.779 89.481,210.276 89.042 C 210.039 88.834,209.984 88.822,210.087 89.000 C 210.213 89.220,210.195 89.221,209.933 89.008 C 209.736 88.848,209.123 88.748,208.116 88.711 C 207.040 88.671,206.512 88.579,206.310 88.396 C 206.149 88.249,205.567 88.096,204.971 88.042 C 204.341 87.985,203.846 87.850,203.740 87.707 C 203.643 87.574,203.193 87.426,202.740 87.376 C 202.287 87.327,201.857 87.185,201.784 87.060 C 201.711 86.936,201.354 86.787,200.992 86.729 C 200.630 86.671,200.333 86.562,200.333 86.485 C 200.333 86.409,200.032 86.257,199.665 86.146 C 199.297 86.036,198.913 85.846,198.811 85.723 C 198.709 85.600,198.495 85.500,198.335 85.500 C 198.176 85.500,197.854 85.350,197.621 85.167 C 197.388 84.983,197.088 84.833,196.955 84.833 C 196.821 84.833,196.533 84.699,196.314 84.535 C 196.096 84.371,195.710 84.148,195.458 84.039 C 195.206 83.930,195.000 83.764,195.000 83.670 C 195.000 83.577,194.897 83.500,194.770 83.500 C 194.644 83.500,194.444 83.383,194.325 83.240 C 194.207 83.098,193.860 82.876,193.555 82.749 C 193.250 82.621,193.000 82.438,193.000 82.342 C 193.000 82.245,192.899 82.167,192.776 82.167 C 192.653 82.167,192.416 82.017,192.250 81.833 C 192.084 81.650,191.857 81.500,191.745 81.500 C 191.438 81.500,185.974 75.989,185.533 75.235 C 185.322 74.874,184.853 74.248,184.491 73.845 C 184.129 73.441,183.833 72.992,183.833 72.847 C 183.832 72.702,183.576 72.305,183.264 71.965 C 182.952 71.625,182.645 71.114,182.582 70.829 C 182.520 70.544,182.372 70.274,182.253 70.228 C 182.134 70.183,181.995 69.934,181.944 69.676 C 181.892 69.418,181.743 69.100,181.612 68.969 C 181.481 68.838,181.320 68.487,181.255 68.188 C 181.189 67.889,181.030 67.604,180.901 67.554 C 180.772 67.505,180.667 67.285,180.667 67.066 C 180.667 66.846,180.525 66.525,180.353 66.353 C 180.180 66.180,179.949 65.767,179.840 65.436 C 179.730 65.105,179.579 64.833,179.503 64.833 C 179.428 64.833,179.285 64.627,179.185 64.375 C 179.001 63.908,178.829 63.602,178.298 62.798 C 178.134 62.550,178.000 62.231,178.000 62.090 C 178.000 61.949,177.925 61.833,177.833 61.833 C 177.742 61.833,177.667 61.950,177.667 62.093 C 177.667 62.236,177.598 62.310,177.513 62.258 C 177.429 62.206,177.237 62.287,177.086 62.438 C 176.693 62.831,176.804 92.204,177.209 95.024 C 177.917 99.957,179.977 105.834,182.165 109.167 C 182.255 109.304,182.454 109.642,182.607 109.917 C 186.231 116.446,195.046 123.154,203.250 125.629 C 210.754 127.893,219.765 127.647,226.500 124.994 C 236.855 120.917,244.359 113.654,248.283 103.911 C 249.041 102.028,249.491 100.494,250.213 97.333 L 250.727 95.083 250.738 77.667 C 250.748 63.309,250.709 60.037,250.515 59.040 C 250.260 57.733,250.008 57.339,249.679 57.735 M138.746 80.333 C 138.746 88.079,138.767 91.248,138.792 87.375 C 138.817 83.502,138.817 77.165,138.792 73.292 C 138.767 69.419,138.746 72.587,138.746 80.333 M1.048 74.536 C 0.890 74.737,0.839 75.103,0.776 76.500 C 0.738 77.347,1.429 77.463,1.585 76.635 C 1.838 75.286,1.499 73.963,1.048 74.536 M0.338 78.991 C 0.227 79.199,0.162 79.691,0.193 80.085 C 0.224 80.479,0.194 80.767,0.125 80.724 C 0.056 80.682,0.012 81.008,0.027 81.448 C 0.046 82.037,0.071 82.109,0.120 81.719 C 0.168 81.330,0.282 81.173,0.543 81.135 C 0.868 81.088,0.895 80.995,0.852 80.085 C 0.793 78.827,0.622 78.462,0.338 78.991 M138.875 95.750 C 138.877 96.117,138.911 96.247,138.951 96.040 C 138.991 95.832,138.990 95.532,138.948 95.373 C 138.906 95.214,138.874 95.383,138.875 95.750 M0.052 98.417 C 0.053 98.967,0.084 99.172,0.121 98.872 C 0.158 98.572,0.157 98.122,0.119 97.872 C 0.081 97.622,0.051 97.867,0.052 98.417 M399.881 98.250 C 399.882 98.708,399.915 98.876,399.953 98.623 C 399.991 98.369,399.990 97.994,399.951 97.789 C 399.911 97.584,399.880 97.792,399.881 98.250 M0.415 99.965 C 0.186 100.129,0.097 100.730,0.322 100.590 C 0.420 100.530,0.505 100.579,0.511 100.698 C 0.517 100.818,0.605 100.745,0.706 100.536 C 0.901 100.132,0.709 99.755,0.415 99.965 M139.372 100.667 C 139.372 100.987,139.406 101.119,139.448 100.958 C 139.490 100.798,139.490 100.535,139.448 100.375 C 139.406 100.215,139.372 100.346,139.372 100.667 M399.558 100.411 C 399.610 100.546,399.580 100.700,399.493 100.754 C 399.405 100.809,399.333 100.933,399.333 101.030 C 399.333 101.142,399.426 101.131,399.583 101.000 C 399.874 100.759,399.920 100.167,399.649 100.167 C 399.547 100.167,399.507 100.277,399.558 100.411 M0.924 104.494 C 0.952 104.635,0.980 104.806,0.987 104.875 C 0.994 104.944,1.079 105.000,1.177 105.000 C 1.274 105.000,1.307 104.925,1.250 104.833 C 1.193 104.742,1.226 104.667,1.323 104.667 C 1.421 104.667,1.500 104.570,1.500 104.452 C 1.500 104.335,1.359 104.238,1.187 104.238 C 0.994 104.238,0.893 104.337,0.924 104.494 M1.513 107.542 C 1.506 107.702,1.579 107.833,1.677 107.833 C 1.774 107.833,1.810 107.903,1.757 107.988 C 1.704 108.074,1.737 108.191,1.831 108.248 C 1.929 108.309,2.000 108.170,2.000 107.917 C 2.000 107.677,1.931 107.523,1.848 107.575 C 1.764 107.626,1.657 107.575,1.611 107.459 C 1.560 107.333,1.521 107.366,1.513 107.542 M2.211 110.236 C 2.262 110.651,2.595 110.759,2.731 110.405 C 2.806 110.210,2.767 110.156,2.596 110.222 C 2.463 110.273,2.314 110.225,2.264 110.116 C 2.214 110.006,2.190 110.060,2.211 110.236 M141.500 111.299 C 141.500 111.387,141.621 111.560,141.769 111.683 C 142.002 111.876,142.030 111.864,141.978 111.592 C 141.915 111.268,141.500 111.014,141.500 111.299 M2.873 112.375 C 2.901 112.913,3.177 113.251,3.358 112.966 C 3.580 112.615,3.521 112.356,3.177 112.172 C 2.900 112.024,2.857 112.053,2.873 112.375 M3.667 114.333 C 3.825 114.436,3.842 114.496,3.714 114.497 C 3.602 114.499,3.554 114.612,3.606 114.750 C 3.659 114.888,3.774 115.000,3.861 115.000 C 3.948 115.000,3.977 114.931,3.925 114.848 C 3.874 114.764,3.925 114.657,4.041 114.610 C 4.268 114.518,3.907 114.172,3.583 114.172 C 3.492 114.172,3.529 114.244,3.667 114.333 M396.111 114.611 C 395.862 114.861,395.989 115.217,396.250 115.000 C 396.387 114.886,396.500 114.727,396.500 114.646 C 396.500 114.474,396.269 114.453,396.111 114.611 M4.333 116.333 C 4.491 116.436,4.509 116.496,4.380 116.497 C 4.107 116.501,4.293 116.949,4.620 117.074 C 4.829 117.155,4.842 117.128,4.683 116.937 C 4.530 116.752,4.534 116.680,4.701 116.612 C 4.935 116.518,4.581 116.172,4.250 116.172 C 4.158 116.172,4.196 116.244,4.333 116.333 M395.324 116.942 C 395.231 117.185,395.190 117.466,395.231 117.567 C 395.273 117.668,395.313 117.628,395.320 117.479 C 395.327 117.330,395.446 117.114,395.583 117.000 C 395.871 116.761,395.912 116.500,395.663 116.500 C 395.569 116.500,395.416 116.699,395.324 116.942 M143.500 117.299 C 143.500 117.387,143.621 117.560,143.769 117.683 C 144.002 117.876,144.030 117.864,143.978 117.592 C 143.915 117.268,143.500 117.014,143.500 117.299 M394.097 119.941 C 393.938 120.354,394.113 120.411,394.326 120.014 C 394.428 119.823,394.442 119.667,394.357 119.667 C 394.272 119.667,394.155 119.790,394.097 119.941 M6.229 121.127 C 6.252 121.335,6.375 121.597,6.503 121.711 C 6.699 121.885,6.700 121.872,6.513 121.625 C 6.365 121.429,6.354 121.333,6.480 121.333 C 6.582 121.333,6.667 121.254,6.667 121.157 C 6.667 121.060,6.598 121.023,6.514 121.075 C 6.430 121.126,6.323 121.075,6.275 120.959 C 6.227 120.844,6.207 120.920,6.229 121.127 M393.540 121.194 C 393.426 121.307,393.333 121.514,393.333 121.652 C 393.333 121.871,393.370 121.868,393.603 121.635 C 393.751 121.487,393.844 121.281,393.809 121.177 C 393.763 121.040,393.689 121.045,393.540 121.194 M146.167 123.299 C 146.167 123.387,146.288 123.560,146.436 123.683 C 146.669 123.876,146.697 123.864,146.644 123.592 C 146.581 123.268,146.167 123.014,146.167 123.299 M146.833 124.632 C 146.833 124.720,146.954 124.893,147.103 125.016 C 147.335 125.209,147.364 125.197,147.311 124.925 C 147.248 124.601,146.833 124.347,146.833 124.632 M147.500 125.966 C 147.500 126.054,147.621 126.226,147.769 126.349 C 148.002 126.543,148.030 126.530,147.978 126.259 C 147.915 125.935,147.500 125.680,147.500 125.966 M390.875 126.593 C 390.553 126.943,390.610 127.295,390.936 126.969 C 391.084 126.821,391.178 126.624,391.144 126.533 C 391.109 126.436,390.996 126.461,390.875 126.593 M8.833 126.657 C 8.833 126.731,8.937 126.879,9.064 126.984 C 9.262 127.148,9.500 126.941,9.500 126.605 C 9.500 126.586,9.350 126.560,9.167 126.546 C 8.983 126.532,8.833 126.582,8.833 126.657 M110.375 126.623 C 110.810 126.657,111.523 126.657,111.958 126.623 C 112.394 126.588,112.037 126.560,111.167 126.560 C 110.296 126.560,109.940 126.588,110.375 126.623 M117.708 126.782 C 117.869 126.823,118.131 126.823,118.292 126.782 C 118.452 126.740,118.321 126.705,118.000 126.705 C 117.679 126.705,117.548 126.740,117.708 126.782 M118.930 127.113 C 119.138 127.266,119.267 127.284,119.306 127.165 C 119.347 127.043,119.454 127.052,119.641 127.193 C 119.874 127.369,119.884 127.364,119.706 127.165 C 119.590 127.035,119.297 126.918,119.054 126.906 C 118.638 126.883,118.631 126.895,118.930 127.113 M390.213 127.875 C 389.887 128.296,389.776 128.555,389.973 128.433 C 390.171 128.311,390.566 127.667,390.443 127.667 C 390.405 127.667,390.302 127.760,390.213 127.875 M124.378 128.487 C 124.393 128.685,124.517 128.799,124.701 128.785 C 125.092 128.755,125.081 128.555,124.677 128.339 C 124.408 128.195,124.358 128.219,124.378 128.487 M127.667 129.813 C 127.667 130.007,127.737 130.167,127.823 130.167 C 128.112 130.167,128.166 129.873,127.915 129.665 C 127.708 129.494,127.667 129.519,127.667 129.813 M129.110 130.468 C 129.153 130.631,129.334 130.775,129.514 130.789 C 129.887 130.817,129.796 130.581,129.340 130.337 C 129.088 130.202,129.047 130.226,129.110 130.468 M150.318 130.637 C 150.419 130.827,150.584 131.032,150.684 131.094 C 150.815 131.175,150.814 131.109,150.682 130.863 C 150.581 130.673,150.416 130.468,150.316 130.406 C 150.185 130.325,150.186 130.391,150.318 130.637 M388.011 131.484 C 387.822 131.750,387.667 132.027,387.667 132.100 C 387.667 132.172,387.854 131.977,388.083 131.667 C 388.313 131.356,388.500 131.079,388.500 131.051 C 388.500 130.893,388.315 131.057,388.011 131.484 M132.449 132.391 C 132.405 132.508,132.506 132.595,132.686 132.595 C 133.055 132.595,133.102 132.408,132.764 132.278 C 132.634 132.229,132.492 132.279,132.449 132.391 M134.588 133.826 C 134.528 133.923,134.599 134.049,134.747 134.105 C 135.113 134.246,135.227 134.091,134.936 133.849 C 134.771 133.713,134.662 133.706,134.588 133.826 M153.500 135.299 C 153.500 135.387,153.621 135.560,153.769 135.683 C 154.002 135.876,154.030 135.864,153.978 135.592 C 153.915 135.268,153.500 135.014,153.500 135.299 M14.987 135.976 C 15.269 136.503,15.536 136.596,15.472 136.145 C 15.441 135.926,15.282 135.728,15.111 135.695 C 14.852 135.646,14.833 135.688,14.987 135.976 M384.792 135.899 C 384.488 136.129,384.375 136.597,384.666 136.417 C 384.822 136.321,385.234 135.660,385.131 135.672 C 385.105 135.675,384.952 135.777,384.792 135.899 M155.667 138.000 C 155.765 138.183,155.929 138.333,156.032 138.333 C 156.134 138.333,156.083 138.183,155.917 138.000 C 155.751 137.817,155.586 137.667,155.552 137.667 C 155.517 137.667,155.569 137.817,155.667 138.000 M156.167 138.639 C 156.167 138.709,156.257 138.857,156.367 138.967 C 156.639 139.239,156.843 139.219,156.732 138.930 C 156.633 138.671,156.167 138.431,156.167 138.639 M141.961 141.130 C 141.907 141.338,141.979 141.440,142.191 141.456 C 142.556 141.484,142.592 141.284,142.270 141.017 C 142.091 140.868,142.023 140.893,141.961 141.130 M268.926 141.458 C 268.649 141.913,268.650 141.914,268.961 141.560 C 269.133 141.363,269.419 141.166,269.596 141.121 C 269.886 141.046,269.883 141.037,269.561 141.019 C 269.338 141.007,269.100 141.172,268.926 141.458 M380.028 141.553 C 379.515 142.100,379.578 142.270,380.101 141.747 C 380.340 141.509,380.503 141.280,380.463 141.241 C 380.423 141.201,380.227 141.341,380.028 141.553 M20.833 142.557 C 20.833 142.687,20.965 142.895,21.125 143.021 C 21.395 143.233,21.398 143.226,21.167 142.927 C 20.939 142.634,20.943 142.614,21.208 142.714 C 21.605 142.862,21.578 142.720,21.167 142.500 C 20.906 142.361,20.833 142.373,20.833 142.557 M378.729 142.876 C 378.062 143.637,377.956 143.896,378.565 143.277 C 378.910 142.925,379.163 142.607,379.125 142.570 C 379.088 142.532,378.909 142.670,378.729 142.876 M22.167 143.890 C 22.167 144.020,22.298 144.229,22.458 144.355 C 22.728 144.566,22.731 144.559,22.500 144.260 C 22.273 143.967,22.277 143.948,22.542 144.047 C 22.939 144.196,22.911 144.053,22.500 143.833 C 22.240 143.694,22.167 143.707,22.167 143.890 M377.362 144.220 C 376.848 144.767,376.911 144.937,377.434 144.414 C 377.673 144.175,377.836 143.947,377.796 143.907 C 377.756 143.867,377.561 144.008,377.362 144.220 M23.500 145.224 C 23.500 145.353,23.631 145.562,23.792 145.688 C 24.062 145.900,24.065 145.893,23.833 145.594 C 23.606 145.300,23.610 145.281,23.875 145.380 C 24.272 145.529,24.244 145.387,23.833 145.167 C 23.573 145.027,23.500 145.040,23.500 145.224 M144.611 145.111 C 144.401 145.321,144.501 145.500,144.828 145.500 C 145.051 145.500,145.126 145.420,145.060 145.250 C 144.958 144.983,144.791 144.931,144.611 145.111 M375.577 145.918 C 375.305 146.140,375.158 146.322,375.250 146.322 C 375.462 146.322,376.238 145.683,376.142 145.587 C 376.103 145.547,375.848 145.696,375.577 145.918 M24.332 146.081 C 24.445 146.218,24.605 146.288,24.688 146.237 C 24.901 146.105,24.698 145.833,24.386 145.833 C 24.175 145.833,24.164 145.880,24.332 146.081 M263.333 146.750 C 263.218 146.889,263.200 147.000,263.293 147.000 C 263.384 147.000,263.553 146.887,263.667 146.750 C 263.782 146.611,263.800 146.500,263.707 146.500 C 263.616 146.500,263.447 146.612,263.333 146.750 M374.567 146.858 C 374.252 147.213,374.252 147.214,374.625 147.018 C 374.831 146.910,375.000 146.749,375.000 146.661 C 375.000 146.424,374.920 146.460,374.567 146.858 M262.567 147.524 C 262.252 147.880,262.252 147.881,262.625 147.685 C 262.831 147.577,263.000 147.416,263.000 147.327 C 263.000 147.091,262.920 147.127,262.567 147.524 M165.583 147.999 C 165.639 148.090,165.834 148.245,166.017 148.342 C 166.322 148.505,166.331 148.492,166.134 148.177 C 166.016 147.988,165.821 147.833,165.700 147.833 C 165.579 147.833,165.526 147.908,165.583 147.999 M276.916 147.999 C 276.972 148.090,277.183 148.251,277.384 148.357 C 277.747 148.547,277.748 148.546,277.433 148.191 C 277.114 147.833,276.724 147.687,276.916 147.999 M146.611 149.111 C 146.401 149.321,146.501 149.500,146.828 149.500 C 147.051 149.500,147.126 149.420,147.060 149.250 C 146.958 148.983,146.791 148.931,146.611 149.111 M28.449 149.283 C 28.211 149.345,28.189 149.410,28.345 149.597 C 28.623 149.932,28.817 149.890,28.788 149.500 C 28.774 149.317,28.760 149.175,28.756 149.186 C 28.753 149.197,28.615 149.240,28.449 149.283 M371.222 149.583 C 371.222 149.721,371.276 149.833,371.341 149.833 C 371.406 149.833,371.553 149.721,371.667 149.583 C 371.839 149.376,371.819 149.333,371.548 149.333 C 371.369 149.333,371.222 149.446,371.222 149.583 M259.199 150.177 C 259.002 150.492,259.012 150.505,259.316 150.342 C 259.742 150.115,259.917 149.833,259.633 149.833 C 259.512 149.833,259.317 149.988,259.199 150.177 M169.149 150.843 C 169.368 151.026,169.583 151.139,169.627 151.095 C 169.748 150.974,169.220 150.499,168.970 150.506 C 168.844 150.509,168.920 150.653,169.149 150.843 M280.249 150.666 C 280.306 150.757,280.516 150.918,280.718 151.023 C 281.081 151.214,281.081 151.213,280.766 150.858 C 280.448 150.499,280.057 150.354,280.249 150.666 M30.897 151.305 C 31.070 151.500,31.281 151.616,31.367 151.563 C 31.549 151.450,31.543 151.443,31.000 151.165 C 30.584 150.952,30.584 150.952,30.897 151.305 M257.409 151.303 C 257.197 151.455,257.129 151.833,257.313 151.833 C 257.540 151.833,257.867 151.374,257.708 151.276 C 257.631 151.228,257.496 151.240,257.409 151.303 M368.643 151.509 C 368.271 151.834,368.269 151.843,368.616 151.675 C 368.817 151.578,369.028 151.424,369.084 151.332 C 369.248 151.067,369.068 151.140,368.643 151.509 M170.906 151.982 C 170.968 152.083,171.173 152.248,171.363 152.349 C 171.609 152.481,171.675 152.482,171.594 152.351 C 171.532 152.251,171.327 152.086,171.137 151.984 C 170.891 151.852,170.825 151.852,170.906 151.982 M282.272 151.965 C 282.151 152.161,282.626 152.596,282.786 152.436 C 282.847 152.375,282.779 152.207,282.635 152.063 C 282.479 151.908,282.332 151.868,282.272 151.965 M33.111 152.611 C 32.931 152.791,32.983 152.958,33.250 153.060 C 33.420 153.126,33.500 153.051,33.500 152.828 C 33.500 152.501,33.321 152.401,33.111 152.611 M366.622 152.833 C 366.420 153.069,366.399 153.167,366.552 153.167 C 366.790 153.167,367.167 152.840,367.167 152.633 C 367.167 152.398,366.916 152.490,366.622 152.833 M172.906 153.316 C 172.968 153.416,173.173 153.581,173.363 153.682 C 173.609 153.814,173.675 153.815,173.594 153.684 C 173.532 153.584,173.327 153.419,173.137 153.318 C 172.891 153.186,172.825 153.185,172.906 153.316 M284.268 153.288 C 284.150 153.405,284.479 153.833,284.687 153.833 C 284.768 153.833,284.833 153.729,284.833 153.601 C 284.833 153.351,284.429 153.127,284.268 153.288 M34.916 153.999 C 35.031 154.186,35.667 154.554,35.667 154.434 C 35.667 154.392,35.549 154.239,35.405 154.095 C 35.117 153.807,34.753 153.736,34.916 153.999 M253.328 154.089 C 253.039 154.438,253.280 154.624,253.603 154.301 C 253.759 154.146,253.799 153.998,253.702 153.938 C 253.611 153.883,253.444 153.950,253.328 154.089 M286.482 154.835 C 286.701 155.022,286.916 155.139,286.960 155.095 C 287.071 154.984,286.627 154.593,286.329 154.539 C 286.187 154.514,286.251 154.638,286.482 154.835 M148.612 155.290 C 148.541 155.404,148.559 155.629,148.653 155.790 C 148.746 155.951,148.827 156.008,148.831 155.917 C 148.835 155.825,148.911 155.862,149.000 156.000 C 149.124 156.192,149.162 156.134,149.162 155.750 C 149.162 155.396,149.118 155.318,149.014 155.483 C 148.897 155.669,148.855 155.652,148.805 155.399 C 148.760 155.174,148.705 155.143,148.612 155.290 M176.377 155.615 C 176.532 155.770,176.706 155.850,176.763 155.793 C 176.927 155.629,176.675 155.333,176.371 155.333 C 176.117 155.333,176.117 155.355,176.377 155.615 M287.710 155.615 C 287.865 155.770,288.039 155.850,288.096 155.793 C 288.260 155.629,288.008 155.333,287.704 155.333 C 287.450 155.333,287.450 155.355,287.710 155.615 M248.576 156.844 C 248.381 157.161,248.666 157.239,248.956 156.948 C 249.216 156.689,249.217 156.667,248.962 156.667 C 248.810 156.667,248.637 156.747,248.576 156.844 M247.202 157.590 C 247.025 157.790,247.029 157.833,247.223 157.833 C 247.353 157.833,247.553 157.721,247.667 157.583 C 247.952 157.240,247.505 157.246,247.202 157.590 M245.868 158.256 C 245.692 158.457,245.696 158.500,245.890 158.500 C 246.020 158.500,246.219 158.387,246.333 158.250 C 246.618 157.907,246.171 157.913,245.868 158.256 M182.910 158.826 C 183.080 159.013,183.325 159.167,183.454 159.167 C 183.762 159.167,183.405 158.790,182.926 158.609 C 182.610 158.489,182.610 158.494,182.910 158.826 M244.505 158.827 C 244.370 158.912,244.300 159.023,244.350 159.073 C 244.400 159.122,244.586 159.054,244.762 158.920 C 245.114 158.654,244.900 158.577,244.505 158.827 M294.377 158.948 C 294.532 159.103,294.706 159.183,294.763 159.126 C 294.927 158.962,294.675 158.667,294.371 158.667 C 294.117 158.667,294.117 158.689,294.377 158.948 M355.838 158.827 C 355.703 158.912,355.634 159.023,355.684 159.073 C 355.734 159.122,355.919 159.054,356.096 158.920 C 356.447 158.654,356.233 158.577,355.838 158.827 M184.571 159.587 C 184.748 159.721,184.933 159.789,184.983 159.739 C 185.088 159.635,184.664 159.337,184.417 159.341 C 184.325 159.343,184.395 159.453,184.571 159.587 M241.670 159.957 C 241.534 160.010,241.322 160.154,241.199 160.277 C 240.841 160.635,241.302 160.549,241.788 160.167 C 242.203 159.840,242.161 159.764,241.670 159.957 M352.505 160.160 C 352.370 160.245,352.300 160.356,352.350 160.406 C 352.400 160.456,352.586 160.387,352.762 160.254 C 353.114 159.988,352.900 159.910,352.505 160.160 M48.924 160.655 C 48.816 160.830,49.108 161.052,49.536 161.118 C 49.729 161.148,49.791 161.082,49.726 160.915 C 49.617 160.631,49.333 160.579,49.333 160.843 C 49.333 160.940,49.257 160.973,49.164 160.915 C 49.071 160.857,49.038 160.740,49.090 160.655 C 49.143 160.570,49.149 160.500,49.103 160.500 C 49.057 160.500,48.977 160.570,48.924 160.655 M149.892 161.833 C 149.892 162.612,149.920 162.931,149.955 162.542 C 149.990 162.152,149.990 161.515,149.955 161.125 C 149.920 160.735,149.892 161.054,149.892 161.833 M299.000 160.744 C 299.000 160.787,299.148 160.901,299.330 160.998 C 299.598 161.142,299.641 161.128,299.562 160.921 C 299.475 160.696,299.000 160.546,299.000 160.744 M50.956 161.497 C 51.254 161.832,51.847 161.897,51.726 161.581 C 51.615 161.291,51.333 161.248,51.333 161.520 C 51.333 161.646,51.237 161.635,51.042 161.487 C 50.795 161.300,50.781 161.301,50.956 161.497 M189.904 161.587 C 190.081 161.721,190.266 161.789,190.316 161.739 C 190.421 161.635,189.998 161.337,189.750 161.341 C 189.658 161.343,189.728 161.453,189.904 161.587 M301.238 161.587 C 301.414 161.721,301.600 161.789,301.650 161.739 C 301.754 161.635,301.331 161.337,301.083 161.341 C 300.992 161.343,301.061 161.453,301.238 161.587 M346.542 162.110 C 346.427 162.157,346.333 162.263,346.333 162.347 C 346.333 162.589,346.772 162.525,347.000 162.250 C 347.219 161.987,347.008 161.922,346.542 162.110 M194.365 162.936 C 194.513 163.085,194.718 163.155,194.820 163.092 C 195.091 162.924,194.870 162.667,194.454 162.667 C 194.123 162.667,194.116 162.688,194.365 162.936 M305.698 162.936 C 305.847 163.085,306.051 163.155,306.153 163.092 C 306.425 162.924,306.203 162.667,305.788 162.667 C 305.457 162.667,305.450 162.688,305.698 162.936 M62.008 163.992 C 61.875 164.076,61.687 164.098,61.591 164.040 C 61.495 163.983,61.520 164.063,61.645 164.218 C 61.893 164.523,62.084 164.605,61.917 164.333 C 61.822 164.181,62.050 164.092,62.387 164.151 C 62.463 164.164,62.477 164.098,62.419 164.004 C 62.293 163.800,62.310 163.800,62.008 163.992 M311.907 164.255 C 312.085 164.390,312.347 164.491,312.490 164.481 C 312.692 164.466,312.685 164.444,312.458 164.385 C 312.298 164.343,312.167 164.239,312.167 164.154 C 312.167 164.070,312.035 164.002,311.875 164.005 C 311.611 164.010,311.614 164.034,311.907 164.255 M66.833 164.627 C 66.833 164.696,66.983 164.847,67.167 164.961 C 67.440 165.132,67.500 165.128,67.500 164.936 C 67.500 164.807,67.381 164.657,67.236 164.601 C 66.894 164.470,66.833 164.474,66.833 164.627 M202.375 164.615 C 202.535 164.657,202.798 164.657,202.958 164.615 C 203.119 164.573,202.987 164.539,202.667 164.539 C 202.346 164.539,202.215 164.573,202.375 164.615 M313.627 164.618 C 313.834 164.658,314.134 164.656,314.294 164.615 C 314.453 164.573,314.283 164.540,313.917 164.542 C 313.550 164.544,313.420 164.578,313.627 164.618 M66.574 164.922 C 66.751 165.057,66.972 165.167,67.064 165.167 C 67.155 165.167,67.085 165.057,66.907 164.922 C 66.729 164.787,66.508 164.677,66.417 164.677 C 66.325 164.677,66.396 164.787,66.574 164.922 M69.208 165.288 C 69.552 165.324,70.115 165.324,70.458 165.288 C 70.802 165.252,70.521 165.223,69.833 165.223 C 69.146 165.223,68.865 165.252,69.208 165.288 M208.458 165.289 C 208.848 165.324,209.485 165.324,209.875 165.289 C 210.265 165.254,209.946 165.225,209.167 165.225 C 208.387 165.225,208.069 165.254,208.458 165.289 M218.125 165.289 C 218.515 165.324,219.152 165.324,219.542 165.289 C 219.931 165.254,219.612 165.225,218.833 165.225 C 218.054 165.225,217.735 165.254,218.125 165.289 M319.713 165.289 C 320.152 165.324,320.827 165.323,321.213 165.288 C 321.600 165.254,321.242 165.225,320.417 165.226 C 319.592 165.226,319.275 165.255,319.713 165.289 M329.458 165.289 C 329.848 165.324,330.485 165.324,330.875 165.289 C 331.265 165.254,330.946 165.225,330.167 165.225 C 329.387 165.225,329.069 165.254,329.458 165.289 " stroke="none" fill="#fbdb0e" fill-rule="evenodd"></path></g></svg>